<svg xmlns="http://www.w3.org/2000/svg" xmlns:v="https://svgstorm.com"
viewBox = "0 0 963 963"
width="963"
height="963">
<g fill="None" fill-opacity="0.0" stroke="#FCFCFC" stroke-opacity="1.00" stroke-width="0.3"><path d="
M 0.00 963.00 
L 963.00 963.00
L 963.00 0.00
L 0.00 0.00
L 0.00 963.00
M 492.00 16.00 
C 525.97 16.00 567.53 24.53 598.02 34.98 C 628.52 45.42 656.43 58.63 682.23 75.77 C 708.03 92.91 730.73 108.28 751.00 132.00
C 753.66 134.66 756.57 137.16 759.00 140.00
C 822.78 214.65 865.21 303.78 868.00 403.00
C 868.17 404.47 868.94 406.90 869.00 409.00
C 870.15 449.82 864.60 498.24 855.22 535.22 C 845.84 572.21 833.21 603.67 815.70 635.70 C 798.18 667.72 780.49 689.51 757.00 717.00
C 754.53 719.89 751.61 722.39 749.00 725.00
C 742.26 732.89 730.56 748.47 721.00 752.00
C 714.95 754.23 708.00 752.67 701.00 753.00 C 694.00 753.33 686.18 752.85 679.00 753.00 C 671.82 753.15 664.27 752.93 657.00 753.00 C 649.74 753.07 642.30 752.97 635.00 753.00 C 627.70 753.03 620.32 752.99 613.00 753.00 C 605.68 753.01 598.33 752.99 591.00 753.00 C 583.67 753.01 576.33 753.00 569.00 753.00 C 561.67 753.00 554.33 753.00 547.00 753.00 C 539.67 753.00 532.33 753.00 525.00 753.00 C 517.67 753.00 510.33 753.00 503.00 753.00 C 495.67 753.00 488.33 753.00 481.00 753.00 C 473.67 753.00 466.33 753.00 459.00 753.00 C 451.67 753.00 444.33 753.00 437.00 753.00 C 429.67 753.00 422.31 753.01 415.00 753.00 C 407.69 752.99 400.29 753.02 393.00 753.00 C 385.71 752.98 378.24 753.04 371.00 753.00 C 363.76 752.96 356.13 753.08 349.00 753.00 C 341.87 752.92 333.88 753.18 327.00 753.00 C 320.12 752.82 311.32 753.39 305.00 753.00 C 298.68 752.61 288.10 753.86 283.00 753.00 C 277.90 752.14 264.03 755.81 263.00 751.00
C 262.78 748.51 261.99 741.41 264.00 740.00
C 268.55 736.81 278.14 741.37 284.00 740.00 C 289.86 738.63 298.62 740.65 305.00 740.00 C 311.38 739.35 318.35 740.28 325.00 740.00 C 331.65 739.72 339.25 740.13 346.00 740.00 C 352.75 739.87 359.19 740.06 366.00 740.00 C 372.81 739.94 380.17 740.03 387.00 740.00 C 393.83 739.97 400.15 740.01 407.00 740.00 C 413.85 739.99 421.14 740.01 428.00 740.00 C 434.86 739.99 441.11 740.00 448.00 740.00 C 454.89 740.00 462.06 740.00 469.00 740.00 C 475.94 740.00 483.04 740.00 490.00 740.00
C 493.63 732.48 499.09 725.44 497.00 716.00
C 492.95 717.12 489.20 719.23 485.00 720.00
C 498.18 710.18 498.76 694.27 498.00 679.00
C 497.83 677.53 497.06 675.10 497.00 673.00
C 496.55 656.95 491.89 642.36 491.00 627.00
C 490.64 624.74 490.65 623.20 491.00 621.00
C 491.43 613.62 498.38 606.46 497.00 599.00
C 495.62 596.95 489.39 598.00 487.00 598.00
C 471.46 598.00 456.89 602.19 443.00 608.00
C 472.34 586.11 509.29 572.27 542.08 557.08 C 574.86 541.88 604.64 520.49 624.77 489.77 C 644.90 459.05 657.56 405.68 621.00 382.00
C 646.47 418.48 627.34 467.77 601.70 498.70 C 576.05 529.63 543.06 550.79 506.77 564.77 C 470.48 578.76 434.74 598.28 404.00 623.00
C 409.11 612.49 415.26 602.13 423.00 593.00
C 333.25 635.77 246.63 686.70 171.00 754.00
C 167.08 757.92 162.87 762.13 159.00 766.00
C 151.35 774.95 142.51 783.21 135.00 792.00
C 133.64 793.60 130.79 797.73 132.00 794.00
C 136.37 780.53 150.67 769.50 158.30 757.30 C 165.94 745.10 178.75 735.41 189.25 725.25 C 199.75 715.09 211.47 705.37 222.75 695.75 C 234.03 686.13 246.32 676.27 258.25 667.25 C 270.17 658.22 282.12 648.90 294.70 640.70 C 307.28 632.49 319.24 622.96 332.25 615.25 C 345.25 607.53 357.75 598.99 368.00 587.00
C 369.86 584.82 372.05 582.95 374.00 581.00
C 387.41 565.31 399.91 549.07 409.00 531.00
C 281.73 613.17 143.46 678.51 35.00 791.00
C 33.67 792.56 30.72 796.75 32.00 793.00
C 34.86 784.63 44.06 778.49 49.25 771.25 C 54.44 764.00 62.13 756.87 68.00 750.00
C 74.90 741.92 82.97 733.86 91.00 727.00
C 92.94 725.34 95.11 723.61 97.00 722.00
C 98.67 720.33 100.22 718.52 102.00 717.00
C 143.27 681.74 185.48 651.10 230.25 621.25 C 275.02 591.39 321.21 561.01 367.70 533.70 C 414.18 506.39 445.95 463.63 483.25 424.25 C 520.55 384.87 591.15 381.83 606.00 322.00
C 613.56 323.66 620.86 326.51 629.00 326.00
C 631.17 326.06 633.51 326.80 635.00 327.00
C 653.65 327.87 672.84 334.88 679.32 353.68 C 685.80 372.48 691.59 392.31 692.00 413.00
C 692.17 414.75 692.95 417.60 693.00 420.00
C 693.07 423.64 693.15 427.36 693.00 431.00
C 692.93 432.84 692.17 434.82 692.00 436.00
C 690.40 476.43 671.88 509.71 646.00 540.00
C 643.81 542.56 641.51 544.85 639.00 547.00
C 628.93 555.61 619.76 562.06 609.77 570.77 C 599.78 579.48 593.50 589.55 587.70 601.69 C 581.89 613.84 577.64 631.30 579.00 646.00 C 580.36 660.70 584.52 674.51 589.32 688.68 C 594.12 702.85 598.11 710.59 608.08 722.92 C 618.05 735.25 637.53 725.01 649.69 734.31 C 661.86 743.60 681.31 737.46 697.00 740.00 C 712.69 742.54 723.35 732.56 732.75 721.75 C 742.15 710.94 750.00 704.82 758.25 694.25 C 766.49 683.68 774.06 675.26 781.25 664.25 C 788.45 653.25 795.50 643.48 801.77 631.77 C 808.04 620.06 813.95 609.14 819.77 596.77 C 825.60 584.40 829.92 571.82 834.32 558.32 C 838.72 544.83 842.46 530.99 845.33 516.33 C 848.19 501.66 851.30 486.68 852.98 470.98 C 854.66 455.28 855.00 435.42 855.00 419.00
C 854.77 416.58 854.00 413.10 854.00 410.00
C 854.00 372.26 843.95 327.13 833.02 292.98 C 822.10 258.83 806.17 229.58 787.25 200.75 C 768.33 171.93 749.85 149.88 723.75 126.25 C 697.65 102.61 673.39 86.75 641.77 70.23 C 610.15 53.71 574.35 43.24 537.98 36.02 C 501.60 28.81 447.30 29.75 411.00 37.00 C 374.70 44.25 340.69 56.61 308.77 72.77 C 276.85 88.93 254.01 105.92 227.00 129.00
C 225.33 130.67 223.78 132.48 222.00 134.00
C 196.01 156.21 179.09 179.27 160.08 207.08 C 141.08 234.89 127.18 264.69 115.68 297.68 C 104.17 330.67 94.74 374.22 94.00 411.00
C 93.95 413.41 93.16 416.30 93.00 418.00
C 92.85 425.66 93.00 433.34 93.00 441.00
C 93.20 443.10 94.00 446.23 94.00 449.00
C 94.00 521.73 122.65 590.32 159.00 651.00
C 154.65 652.75 151.45 656.75 147.00 658.00
C 43.67 505.72 60.28 282.82 187.00 148.00
C 189.16 145.47 191.72 143.28 194.00 141.00
C 226.61 102.84 261.89 79.48 305.69 56.69 C 349.50 33.91 409.51 16.00 461.00 16.00
C 470.75 15.06 482.32 15.06 492.00 16.00
M 696.00 225.00 
C 698.00 226.48 699.55 228.06 701.00 230.00
C 703.24 233.01 705.08 236.41 706.00 240.00
C 697.18 235.78 689.50 238.90 680.92 241.92 C 672.35 244.95 673.30 254.50 666.25 259.25 C 659.19 264.00 655.78 273.04 658.00 282.00 C 660.22 290.96 662.44 298.48 664.93 307.07 C 667.42 315.67 668.94 323.63 672.00 332.00
C 659.20 308.23 631.10 310.26 609.00 304.00
C 609.77 286.89 606.09 270.91 606.00 254.00
C 606.06 251.78 606.76 249.55 607.00 248.00
C 608.15 230.13 618.79 210.43 640.00 213.00
C 635.70 217.21 632.98 222.73 637.25 228.75 C 641.53 234.76 649.67 230.24 653.75 228.75 C 657.82 227.25 668.92 222.99 663.23 218.77 C 657.54 214.55 652.54 215.62 646.93 212.07 C 641.32 208.52 631.86 211.33 625.98 211.98 C 620.09 212.62 616.70 218.13 612.75 221.75 C 608.79 225.36 599.80 219.21 596.00 217.00
C 594.22 215.68 591.89 214.09 591.00 212.00
C 590.58 211.00 589.73 210.23 590.00 209.00
C 610.53 213.67 629.74 201.43 650.00 202.00 C 670.26 202.57 678.42 219.07 696.00 225.00
M 649.00 217.00 
C 655.05 219.26 650.04 230.00 644.00 227.00 C 637.96 223.99 642.23 214.46 649.00 217.00
M 606.00 320.00 
C 607.70 315.62 607.16 309.97 609.00 306.00
C 611.03 309.79 610.49 318.33 606.00 320.00
M 373.00 573.00 
C 371.14 575.18 368.95 577.05 367.00 579.00
C 334.35 617.20 285.02 634.10 245.30 662.30 C 205.59 690.51 163.60 716.87 126.00 749.00
C 124.33 750.67 122.78 752.48 121.00 754.00
C 117.04 757.39 112.96 760.62 109.00 764.00
C 107.00 766.00 105.13 768.18 103.00 770.00
C 99.27 773.18 95.68 776.86 92.00 780.00
C 83.41 788.58 74.54 797.46 66.00 806.00
C 54.94 818.94 42.71 831.24 32.00 844.00
C 116.57 706.74 264.96 630.25 394.00 547.00
C 388.23 556.47 380.06 564.37 373.00 573.00
M 331.00 793.00 
C 346.38 793.00 362.62 796.73 375.00 805.00
C 372.49 806.52 370.67 809.28 370.00 812.00
C 356.78 805.51 335.04 803.65 321.00 803.00 C 306.96 802.35 282.39 809.36 287.98 826.02 C 293.56 842.69 317.50 838.59 330.67 842.33 C 343.84 846.07 363.90 844.57 373.75 857.25 C 383.61 869.93 378.40 888.53 363.77 895.77 C 349.14 903.01 330.29 903.62 313.78 902.22 C 297.26 900.83 282.47 896.64 268.00 889.00
C 268.33 884.91 273.33 882.88 274.00 879.00
C 286.95 884.78 302.59 893.38 317.67 892.33 C 332.75 891.28 352.13 897.09 362.75 881.75 C 373.37 866.41 351.47 854.44 337.00 855.00 C 322.53 855.56 303.76 849.38 289.78 845.22 C 275.80 841.07 269.22 818.77 279.31 807.31 C 289.39 795.84 307.23 792.82 322.00 793.00
C 324.82 792.73 328.24 792.73 331.00 793.00
M 533.00 793.00 
C 550.93 793.00 567.72 798.57 582.00 809.00
C 579.30 812.39 576.33 815.43 574.00 819.00
C 545.42 790.06 470.74 800.12 472.00 849.00 C 473.26 897.88 546.79 904.21 576.00 877.00
C 577.48 880.88 582.06 883.04 583.00 887.00
C 548.40 908.54 495.86 912.54 467.70 876.30 C 439.54 840.06 480.27 788.58 523.00 793.00
C 526.14 792.70 529.92 792.70 533.00 793.00
M 687.00 900.00 
C 683.16 905.48 671.39 900.12 674.00 893.00 C 676.61 885.88 672.90 878.24 674.00 871.00 C 675.10 863.76 673.66 856.29 674.00 849.00 C 674.34 841.71 674.20 834.31 674.00 827.00 C 673.80 819.69 674.37 811.55 675.00 805.00
C 675.00 801.67 675.00 798.33 675.00 795.00
C 679.00 795.00 683.00 795.00 687.00 795.00
C 687.00 830.00 687.00 865.00 687.00 900.00
M 419.00 843.00 
C 427.81 845.23 423.56 860.97 414.33 857.67 C 405.10 854.37 409.56 840.61 419.00 843.00
M 623.00 843.00 
C 631.81 845.23 627.56 860.97 618.33 857.67 C 609.10 854.37 613.56 840.61 623.00 843.00
M 688.00 936.00 
C 688.58 948.12 671.90 942.00 662.00 943.00 C 652.10 944.00 639.51 942.55 629.00 943.00 C 618.50 943.45 606.78 942.80 596.00 943.00 C 585.22 943.20 573.92 942.91 563.00 943.00 C 552.08 943.09 541.00 942.96 530.00 943.00 C 519.00 943.04 508.08 942.98 497.00 943.00 C 485.92 943.02 474.09 942.99 463.00 943.00 C 451.91 943.01 441.05 943.00 430.00 943.00 C 418.95 943.00 408.03 943.00 397.00 943.00 C 385.97 943.00 375.04 943.00 364.00 943.00 C 352.96 943.00 342.07 943.00 331.00 943.00 C 319.93 943.00 309.14 943.00 298.00 943.00 C 286.86 943.00 275.19 943.00 264.00 943.00
C 263.42 930.88 280.10 937.00 290.00 936.00 C 299.90 935.00 312.49 936.45 323.00 936.00 C 333.51 935.55 345.22 936.20 356.00 936.00 C 366.78 935.80 378.08 936.09 389.00 936.00 C 399.92 935.91 411.00 936.04 422.00 936.00 C 433.00 935.96 443.92 936.02 455.00 936.00 C 466.08 935.98 477.91 936.01 489.00 936.00 C 500.09 935.99 510.95 936.00 522.00 936.00 C 533.05 936.00 543.97 936.00 555.00 936.00 C 566.03 936.00 576.96 936.00 588.00 936.00 C 599.04 936.00 609.93 936.00 621.00 936.00 C 632.07 936.00 642.86 936.00 654.00 936.00 C 665.14 936.00 676.81 936.00 688.00 936.00 Z"/>
</g>
<g fill="None" fill-opacity="0.0" stroke="#707171" stroke-opacity="1.00" stroke-width="0.3"><path d="
M 461.00 16.00 
C 471.33 16.00 481.67 16.00 492.00 16.00
C 482.32 15.06 470.75 15.06 461.00 16.00 Z"/>
</g>
<g fill="None" fill-opacity="0.0" stroke="#0F0F0F" stroke-opacity="1.00" stroke-width="0.3"><path d="
M 194.00 141.00 
C 191.84 143.53 189.28 145.72 187.00 148.00
C 60.28 282.82 43.67 505.72 147.00 658.00
C 151.45 656.75 154.65 652.75 159.00 651.00
C 122.65 590.32 94.00 521.73 94.00 449.00
C 93.80 446.90 93.00 443.77 93.00 441.00
C 93.00 433.34 92.85 425.66 93.00 418.00
C 93.05 415.59 93.84 412.70 94.00 411.00
C 94.74 374.22 104.17 330.67 115.68 297.68 C 127.18 264.69 141.08 234.89 160.08 207.08 C 179.09 179.27 196.01 156.21 222.00 134.00
C 223.67 132.33 225.22 130.52 227.00 129.00
C 254.01 105.92 276.85 88.93 308.77 72.77 C 340.69 56.61 374.70 44.25 411.00 37.00 C 447.30 29.75 501.60 28.81 537.98 36.02 C 574.35 43.24 610.15 53.71 641.77 70.23 C 673.39 86.75 697.65 102.61 723.75 126.25 C 749.85 149.88 768.33 171.93 787.25 200.75 C 806.17 229.58 822.10 258.83 833.02 292.98 C 843.95 327.13 854.00 372.26 854.00 410.00
C 854.23 412.42 855.00 415.91 855.00 419.00
C 855.00 435.42 854.66 455.28 852.98 470.98 C 851.30 486.68 848.19 501.66 845.33 516.33 C 842.46 530.99 838.72 544.83 834.32 558.32 C 829.92 571.82 825.60 584.40 819.77 596.77 C 813.95 609.14 808.04 620.06 801.77 631.77 C 795.50 643.48 788.45 653.25 781.25 664.25 C 774.06 675.26 766.49 683.68 758.25 694.25 C 750.00 704.82 742.15 710.94 732.75 721.75 C 723.35 732.56 712.69 742.54 697.00 740.00 C 681.31 737.46 661.86 743.60 649.69 734.31 C 637.53 725.01 618.05 735.25 608.08 722.92 C 598.11 710.59 594.12 702.85 589.32 688.68 C 584.52 674.51 580.36 660.70 579.00 646.00 C 577.64 631.30 581.89 613.84 587.70 601.69 C 593.50 589.55 599.78 579.48 609.77 570.77 C 619.76 562.06 628.93 555.61 639.00 547.00
C 641.26 544.74 643.79 542.21 646.00 540.00
C 671.88 509.71 690.40 476.43 692.00 436.00
C 692.07 434.16 692.83 432.18 693.00 431.00
C 693.15 427.36 693.07 423.64 693.00 420.00
C 692.83 418.25 692.05 415.40 692.00 413.00
C 691.59 392.31 685.80 372.48 679.32 353.68 C 672.84 334.88 653.65 327.87 635.00 327.00
C 632.92 326.90 630.40 326.16 629.00 326.00
C 620.86 326.51 613.56 323.66 606.00 322.00
C 591.15 381.83 520.55 384.87 483.25 424.25 C 445.95 463.63 414.18 506.39 367.70 533.70 C 321.21 561.01 275.02 591.39 230.25 621.25 C 185.48 651.10 143.27 681.74 102.00 717.00
C 100.33 718.67 98.78 720.48 97.00 722.00
C 95.11 723.61 92.94 725.34 91.00 727.00
C 83.42 734.58 75.54 742.46 68.00 750.00
C 62.13 756.87 54.44 764.00 49.25 771.25 C 44.06 778.49 34.86 784.63 32.00 793.00
C 32.76 792.20 34.23 791.70 35.00 791.00
C 143.46 678.51 281.73 613.17 409.00 531.00
C 399.91 549.07 387.41 565.31 374.00 581.00
C 372.14 583.18 369.95 585.05 368.00 587.00
C 357.75 598.99 345.25 607.53 332.25 615.25 C 319.24 622.96 307.28 632.49 294.70 640.70 C 282.12 648.90 270.17 658.22 258.25 667.25 C 246.32 676.27 234.03 686.13 222.75 695.75 C 211.47 705.37 199.75 715.09 189.25 725.25 C 178.75 735.41 165.94 745.10 158.30 757.30 C 150.67 769.50 136.37 780.53 132.00 794.00
C 132.76 793.20 134.23 792.70 135.00 792.00
C 142.51 783.21 151.35 774.95 159.00 766.00
C 162.66 761.71 166.76 757.62 171.00 754.00
C 246.63 686.70 333.25 635.77 423.00 593.00
C 415.26 602.13 409.11 612.49 404.00 623.00
C 434.74 598.28 470.48 578.76 506.77 564.77 C 543.06 550.79 576.05 529.63 601.70 498.70 C 627.34 467.77 646.47 418.48 621.00 382.00
C 657.56 405.68 644.90 459.05 624.77 489.77 C 604.64 520.49 574.86 541.88 542.08 557.08 C 509.29 572.27 472.34 586.11 443.00 608.00
C 456.89 602.19 471.46 598.00 487.00 598.00
C 490.36 597.67 496.30 595.23 497.00 599.00
C 498.38 606.46 491.43 613.62 491.00 621.00
C 490.89 622.95 490.89 625.05 491.00 627.00
C 491.89 642.36 496.55 656.95 497.00 673.00
C 497.17 674.47 497.94 676.90 498.00 679.00
C 498.76 694.27 498.18 710.18 485.00 720.00
C 489.20 719.23 492.95 717.12 497.00 716.00
C 499.09 725.44 493.63 732.48 490.00 740.00
C 483.04 740.00 475.94 740.00 469.00 740.00 C 462.06 740.00 454.89 740.00 448.00 740.00 C 441.11 740.00 434.86 739.99 428.00 740.00 C 421.14 740.01 413.85 739.99 407.00 740.00 C 400.15 740.01 393.83 739.97 387.00 740.00 C 380.17 740.03 372.81 739.94 366.00 740.00 C 359.19 740.06 352.75 739.87 346.00 740.00 C 339.25 740.13 331.65 739.72 325.00 740.00 C 318.35 740.28 311.38 739.35 305.00 740.00 C 298.62 740.65 289.86 738.63 284.00 740.00 C 278.14 741.37 268.55 736.81 264.00 740.00
C 263.75 743.64 264.33 747.36 264.00 751.00
C 271.27 756.40 285.42 750.29 295.00 752.00 C 304.58 753.71 317.68 751.22 328.00 752.00 C 338.32 752.78 350.39 751.64 361.00 752.00 C 371.61 752.36 382.22 751.84 393.00 752.00 C 403.78 752.16 415.12 751.93 426.00 752.00 C 436.88 752.07 448.09 751.97 459.00 752.00 C 469.91 752.03 481.12 751.99 492.00 752.00 C 502.88 752.01 513.12 752.01 524.00 752.00 C 534.88 751.99 546.09 752.04 557.00 752.00 C 567.91 751.96 579.13 752.09 590.00 752.00 C 600.87 751.91 611.14 752.22 622.00 752.00 C 632.86 751.78 644.15 752.48 655.00 752.00 C 665.85 751.52 677.25 753.05 688.00 752.00 C 698.75 750.95 710.53 754.32 721.00 752.00
C 730.56 748.47 742.26 732.89 749.00 725.00
C 751.47 722.11 754.39 719.61 757.00 717.00
C 780.49 689.51 798.18 667.72 815.70 635.70 C 833.21 603.67 845.84 572.21 855.22 535.22 C 864.60 498.24 870.15 449.82 869.00 409.00
C 868.83 407.53 868.06 405.10 868.00 403.00
C 865.21 303.78 822.78 214.65 759.00 140.00
C 756.34 137.34 753.43 134.84 751.00 132.00
C 730.73 108.28 708.03 92.91 682.23 75.77 C 656.43 58.63 628.52 45.42 598.02 34.98 C 567.53 24.53 525.97 16.00 492.00 16.00
C 481.67 16.00 471.33 16.00 461.00 16.00
C 409.51 16.00 349.50 33.91 305.69 56.69 C 261.89 79.48 226.61 102.84 194.00 141.00
M 467.00 511.00 
C 465.14 513.18 462.95 515.05 461.00 517.00
C 451.35 528.29 443.86 539.75 436.23 552.23 C 428.60 564.71 425.36 580.65 413.00 590.00
C 429.04 541.48 450.75 490.82 483.75 450.75 C 516.75 410.68 562.24 367.47 617.00 380.00
C 606.89 381.35 595.90 382.49 586.00 386.00
C 619.52 389.34 612.64 428.22 597.23 447.23 C 581.81 466.24 564.19 481.10 544.30 494.30 C 524.42 507.51 504.78 521.28 485.77 535.77 C 466.76 550.26 451.87 569.46 435.00 586.00
C 447.24 547.61 469.27 512.85 499.00 484.00
C 487.51 491.21 476.76 501.22 467.00 511.00
M 551.00 605.00 
C 551.00 606.66 551.05 608.34 551.00 610.00
C 550.95 611.87 550.17 613.80 550.00 615.00
C 549.23 634.37 565.39 648.72 570.92 666.08 C 576.46 683.43 589.57 704.49 575.00 721.00
C 581.03 718.63 586.87 711.95 588.78 721.22 C 590.68 730.50 582.92 732.44 581.00 740.00
C 568.85 743.66 559.98 736.55 549.93 734.07 C 539.87 731.59 527.10 735.97 518.77 728.23 C 510.44 720.49 509.06 711.84 508.01 700.99 C 506.96 690.14 508.31 675.45 508.99 664.99 C 509.67 654.54 512.33 643.33 516.31 634.31 C 520.28 625.28 524.14 618.40 529.77 610.77 C 535.40 603.14 541.85 596.10 551.00 594.00
C 553.91 595.82 551.21 603.00 551.00 605.00
M 597.00 734.00 
C 599.40 736.51 600.84 736.65 598.00 737.00
C 595.74 737.28 593.28 737.00 591.00 737.00
C 588.89 740.49 601.44 738.54 604.00 739.00
C 599.58 741.25 593.18 739.39 588.00 740.00
C 587.02 739.81 585.26 740.53 585.00 739.00
C 586.34 738.27 587.64 737.66 589.00 737.00
C 590.09 734.40 593.50 731.60 596.00 731.00
C 595.47 732.28 596.97 732.86 597.00 734.00
M 505.00 738.00 
C 501.23 737.16 498.32 739.14 495.00 740.00
C 496.73 737.08 500.09 735.35 501.00 732.00
C 503.61 732.08 504.44 735.84 505.00 738.00
M 627.00 739.00 
C 625.55 739.32 624.89 738.34 625.00 737.00
C 626.33 737.00 627.67 737.00 629.00 737.00
C 636.49 734.38 645.85 738.72 653.00 739.00
C 644.97 742.03 635.64 738.22 627.00 739.00
M 553.00 739.00 
C 550.57 741.13 546.18 739.47 543.00 740.00
C 545.43 737.87 549.82 739.53 553.00 739.00 Z"/>
</g>
<g fill="None" fill-opacity="0.0" stroke="#7C7A7F" stroke-opacity="1.00" stroke-width="0.3"><path d="
M 222.00 134.00 
C 223.78 132.48 225.33 130.67 227.00 129.00
C 225.22 130.52 223.67 132.33 222.00 134.00 Z"/>
</g>
<g fill="None" fill-opacity="0.0" stroke="#838381" stroke-opacity="1.00" stroke-width="0.3"><path d="
M 759.00 140.00 
C 756.57 137.16 753.66 134.66 751.00 132.00
C 753.43 134.84 756.34 137.34 759.00 140.00 Z"/>
</g>
<g fill="None" fill-opacity="0.0" stroke="#777879" stroke-opacity="1.00" stroke-width="0.3"><path d="
M 187.00 148.00 
C 189.28 145.72 191.84 143.53 194.00 141.00
C 191.72 143.28 189.16 145.47 187.00 148.00 Z"/>
</g>
<g fill="None" fill-opacity="0.0" stroke="#0F100F" stroke-opacity="1.00" stroke-width="0.3"><path d="
M 591.00 212.00 
C 591.61 213.09 595.02 216.14 596.00 217.00
C 599.80 219.21 608.79 225.36 612.75 221.75 C 616.70 218.13 620.09 212.62 625.98 211.98 C 631.86 211.33 641.32 208.52 646.93 212.07 C 652.54 215.62 657.54 214.55 663.23 218.77 C 668.92 222.99 657.82 227.25 653.75 228.75 C 649.67 230.24 641.53 234.76 637.25 228.75 C 632.98 222.73 635.70 217.21 640.00 213.00
C 618.79 210.43 608.15 230.13 607.00 248.00
C 606.87 250.04 606.16 252.62 606.00 254.00
C 606.09 270.91 609.77 286.89 609.00 304.00
C 631.10 310.26 659.20 308.23 672.00 332.00
C 668.94 323.63 667.42 315.67 664.93 307.07 C 662.44 298.48 660.22 290.96 658.00 282.00 C 655.78 273.04 659.19 264.00 666.25 259.25 C 673.30 254.50 672.35 244.95 680.92 241.92 C 689.50 238.90 697.18 235.78 706.00 240.00
C 705.08 236.41 703.24 233.01 701.00 230.00
C 699.74 228.55 697.40 226.22 696.00 225.00
C 678.42 219.07 670.26 202.57 650.00 202.00 C 629.74 201.43 610.53 213.67 590.00 209.00
C 589.73 210.23 590.58 211.00 591.00 212.00
M 686.00 224.00 
C 690.61 227.28 696.83 229.60 700.00 235.00
C 688.67 231.74 675.69 232.16 665.00 237.00
C 669.53 228.72 679.45 229.27 686.00 224.00 Z"/>
</g>
<g fill="None" fill-opacity="0.0" stroke="#767575" stroke-opacity="1.00" stroke-width="0.3"><path d="
M 596.00 217.00 
C 595.02 216.14 591.61 213.09 591.00 212.00
C 591.89 214.09 594.22 215.68 596.00 217.00 Z"/>
</g>
<g fill="None" fill-opacity="0.0" stroke="#131414" stroke-opacity="1.00" stroke-width="0.3"><path d="
M 649.00 217.00 
C 642.23 214.46 637.96 223.99 644.00 227.00 C 650.04 230.00 655.05 219.26 649.00 217.00 Z"/>
</g>
<g fill="None" fill-opacity="0.0" stroke="#E8E8E8" stroke-opacity="1.00" stroke-width="0.3"><path d="
M 686.00 224.00 
C 679.45 229.27 669.53 228.72 665.00 237.00
C 675.69 232.16 688.67 231.74 700.00 235.00
C 696.83 229.60 690.61 227.28 686.00 224.00 Z"/>
</g>
<g fill="None" fill-opacity="0.0" stroke="#7D7C7A" stroke-opacity="1.00" stroke-width="0.3"><path d="
M 701.00 230.00 
C 699.55 228.06 698.00 226.48 696.00 225.00
C 697.40 226.22 699.74 228.55 701.00 230.00 Z"/>
</g>
<g fill="None" fill-opacity="0.0" stroke="#787878" stroke-opacity="1.00" stroke-width="0.3"><path d="
M 606.00 254.00 
C 606.16 252.62 606.87 250.04 607.00 248.00
C 606.76 249.55 606.06 251.78 606.00 254.00 Z"/>
</g>
<g fill="None" fill-opacity="0.0" stroke="#242424" stroke-opacity="1.00" stroke-width="0.3"><path d="
M 606.00 320.00 
C 610.49 318.33 611.03 309.79 609.00 306.00
C 607.16 309.97 607.70 315.62 606.00 320.00 Z"/>
</g>
<g fill="None" fill-opacity="0.0" stroke="#7D7E7D" stroke-opacity="1.00" stroke-width="0.3"><path d="
M 635.00 327.00 
C 633.51 326.80 631.17 326.06 629.00 326.00
C 630.40 326.16 632.92 326.90 635.00 327.00 Z"/>
</g>
<g fill="None" fill-opacity="0.0" stroke="#F8F8F8" stroke-opacity="1.00" stroke-width="0.3"><path d="
M 461.00 517.00 
C 462.86 514.82 465.05 512.95 467.00 511.00
C 476.76 501.22 487.51 491.21 499.00 484.00
C 469.27 512.85 447.24 547.61 435.00 586.00
C 451.87 569.46 466.76 550.26 485.77 535.77 C 504.78 521.28 524.42 507.51 544.30 494.30 C 564.19 481.10 581.81 466.24 597.23 447.23 C 612.64 428.22 619.52 389.34 586.00 386.00
C 595.90 382.49 606.89 381.35 617.00 380.00
C 562.24 367.47 516.75 410.68 483.75 450.75 C 450.75 490.82 429.04 541.48 413.00 590.00
C 425.36 580.65 428.60 564.71 436.23 552.23 C 443.86 539.75 451.35 528.29 461.00 517.00 Z"/>
</g>
<g fill="None" fill-opacity="0.0" stroke="#777577" stroke-opacity="1.00" stroke-width="0.3"><path d="
M 869.00 409.00 
C 868.94 406.90 868.17 404.47 868.00 403.00
C 868.06 405.10 868.83 407.53 869.00 409.00 Z"/>
</g>
<g fill="None" fill-opacity="0.0" stroke="#7C7E7C" stroke-opacity="1.00" stroke-width="0.3"><path d="
M 855.00 419.00 
C 855.00 415.91 854.23 412.42 854.00 410.00
C 854.00 413.10 854.77 416.58 855.00 419.00 Z"/>
</g>
<g fill="None" fill-opacity="0.0" stroke="#878587" stroke-opacity="1.00" stroke-width="0.3"><path d="
M 93.00 418.00 
C 93.16 416.30 93.95 413.41 94.00 411.00
C 93.84 412.70 93.05 415.59 93.00 418.00 Z"/>
</g>
<g fill="None" fill-opacity="0.0" stroke="#767678" stroke-opacity="1.00" stroke-width="0.3"><path d="
M 693.00 420.00 
C 692.95 417.60 692.17 414.75 692.00 413.00
C 692.05 415.40 692.83 418.25 693.00 420.00 Z"/>
</g>
<g fill="None" fill-opacity="0.0" stroke="#818184" stroke-opacity="1.00" stroke-width="0.3"><path d="
M 692.00 436.00 
C 692.17 434.82 692.93 432.84 693.00 431.00
C 692.83 432.18 692.07 434.16 692.00 436.00 Z"/>
</g>
<g fill="None" fill-opacity="0.0" stroke="#828082" stroke-opacity="1.00" stroke-width="0.3"><path d="
M 94.00 449.00 
C 94.00 446.23 93.20 443.10 93.00 441.00
C 93.00 443.77 93.80 446.90 94.00 449.00 Z"/>
</g>
<g fill="None" fill-opacity="0.0" stroke="#808182" stroke-opacity="1.00" stroke-width="0.3"><path d="
M 461.00 517.00 
C 462.95 515.05 465.14 513.18 467.00 511.00
C 465.05 512.95 462.86 514.82 461.00 517.00 Z"/>
</g>
<g fill="None" fill-opacity="0.0" stroke="#7B7B7E" stroke-opacity="1.00" stroke-width="0.3"><path d="
M 639.00 547.00 
C 641.51 544.85 643.81 542.56 646.00 540.00
C 643.79 542.21 641.26 544.74 639.00 547.00 Z"/>
</g>
<g fill="None" fill-opacity="0.0" stroke="#0E0E0E" stroke-opacity="1.00" stroke-width="0.3"><path d="
M 66.00 806.00 
C 73.79 796.89 82.94 787.74 92.00 780.00
C 95.68 776.86 99.27 773.18 103.00 770.00
C 105.00 768.00 106.87 765.82 109.00 764.00
C 112.96 760.62 117.04 757.39 121.00 754.00
C 122.67 752.33 124.22 750.52 126.00 749.00
C 163.60 716.87 205.59 690.51 245.30 662.30 C 285.02 634.10 334.35 617.20 367.00 579.00
C 368.86 576.82 371.05 574.95 373.00 573.00
C 380.06 564.37 388.23 556.47 394.00 547.00
C 264.96 630.25 116.57 706.74 32.00 844.00
C 42.71 831.24 54.94 818.94 66.00 806.00 Z"/>
</g>
<g fill="None" fill-opacity="0.0" stroke="#878689" stroke-opacity="1.00" stroke-width="0.3"><path d="
M 367.00 579.00 
C 368.95 577.05 371.14 575.18 373.00 573.00
C 371.05 574.95 368.86 576.82 367.00 579.00 Z"/>
</g>
<g fill="None" fill-opacity="0.0" stroke="#7B7B7B" stroke-opacity="1.00" stroke-width="0.3"><path d="
M 368.00 587.00 
C 369.95 585.05 372.14 583.18 374.00 581.00
C 372.05 582.95 369.86 584.82 368.00 587.00 Z"/>
</g>
<g fill="None" fill-opacity="0.0" stroke="#F8F8F8" stroke-opacity="1.00" stroke-width="0.3"><path d="
M 550.00 615.00 
C 550.07 613.18 550.85 611.15 551.00 610.00
C 551.05 608.34 551.00 606.66 551.00 605.00
C 551.00 601.33 551.00 597.67 551.00 594.00
C 541.85 596.10 535.40 603.14 529.77 610.77 C 524.14 618.40 520.28 625.28 516.31 634.31 C 512.33 643.33 509.67 654.54 508.99 664.99 C 508.31 675.45 506.96 690.14 508.01 700.99 C 509.06 711.84 510.44 720.49 518.77 728.23 C 527.10 735.97 539.87 731.59 549.93 734.07 C 559.98 736.55 568.85 743.66 581.00 740.00
C 582.92 732.44 590.68 730.50 588.78 721.22 C 586.87 711.95 581.03 718.63 575.00 721.00
C 589.57 704.49 576.46 683.43 570.92 666.08 C 565.39 648.72 549.23 634.37 550.00 615.00 Z"/>
</g>
<g fill="None" fill-opacity="0.0" stroke="#808182" stroke-opacity="1.00" stroke-width="0.3"><path d="
M 551.00 605.00 
C 551.21 603.00 553.91 595.82 551.00 594.00
C 551.00 597.67 551.00 601.33 551.00 605.00 Z"/>
</g>
<g fill="None" fill-opacity="0.0" stroke="#828282" stroke-opacity="1.00" stroke-width="0.3"><path d="
M 487.00 598.00 
C 489.39 598.00 495.62 596.95 497.00 599.00
C 496.30 595.23 490.36 597.67 487.00 598.00 Z"/>
</g>
<g fill="None" fill-opacity="0.0" stroke="#767677" stroke-opacity="1.00" stroke-width="0.3"><path d="
M 550.00 615.00 
C 550.17 613.80 550.95 611.87 551.00 610.00
C 550.85 611.15 550.07 613.18 550.00 615.00 Z"/>
</g>
<g fill="None" fill-opacity="0.0" stroke="#747878" stroke-opacity="1.00" stroke-width="0.3"><path d="
M 491.00 627.00 
C 490.89 625.05 490.89 622.95 491.00 621.00
C 490.65 623.20 490.64 624.74 491.00 627.00 Z"/>
</g>
<g fill="None" fill-opacity="0.0" stroke="#717473" stroke-opacity="1.00" stroke-width="0.3"><path d="
M 498.00 679.00 
C 497.94 676.90 497.17 674.47 497.00 673.00
C 497.06 675.10 497.83 677.53 498.00 679.00 Z"/>
</g>
<g fill="None" fill-opacity="0.0" stroke="#79797A" stroke-opacity="1.00" stroke-width="0.3"><path d="
M 97.00 722.00 
C 98.78 720.48 100.33 718.67 102.00 717.00
C 100.22 718.52 98.67 720.33 97.00 722.00 Z"/>
</g>
<g fill="None" fill-opacity="0.0" stroke="#747476" stroke-opacity="1.00" stroke-width="0.3"><path d="
M 749.00 725.00 
C 751.61 722.39 754.53 719.89 757.00 717.00
C 754.39 719.61 751.47 722.11 749.00 725.00 Z"/>
</g>
<g fill="None" fill-opacity="0.0" stroke="#757675" stroke-opacity="1.00" stroke-width="0.3"><path d="
M 68.00 750.00 
C 75.54 742.46 83.42 734.58 91.00 727.00
C 82.97 733.86 74.90 741.92 68.00 750.00 Z"/>
</g>
<g fill="None" fill-opacity="0.0" stroke="#DCDCDD" stroke-opacity="1.00" stroke-width="0.3"><path d="
M 589.00 737.00 
C 589.46 736.87 590.00 737.00 590.00 737.00
C 590.50 737.00 591.00 737.00 591.00 737.00
C 593.28 737.00 595.74 737.28 598.00 737.00
C 598.53 737.61 597.35 734.49 597.00 734.00
C 596.97 732.86 595.47 732.28 596.00 731.00
C 593.50 731.60 590.09 734.40 589.00 737.00 Z"/>
</g>
<g fill="None" fill-opacity="0.0" stroke="#D6D6D6" stroke-opacity="1.00" stroke-width="0.3"><path d="
M 505.00 738.00 
C 504.44 735.84 503.61 732.08 501.00 732.00
C 500.09 735.35 496.73 737.08 495.00 740.00
C 498.32 739.14 501.23 737.16 505.00 738.00 Z"/>
</g>
<g fill="None" fill-opacity="0.0" stroke="#70716F" stroke-opacity="1.00" stroke-width="0.3"><path d="
M 598.00 737.00 
C 600.84 736.65 599.40 736.51 597.00 734.00
C 597.35 734.49 598.53 737.61 598.00 737.00 Z"/>
</g>
<g fill="None" fill-opacity="0.0" stroke="#939493" stroke-opacity="1.00" stroke-width="0.3"><path d="
M 588.00 740.00 
C 588.80 739.57 589.37 737.57 590.00 737.00
C 590.00 737.00 589.46 736.87 589.00 737.00
C 587.64 737.66 586.34 738.27 585.00 739.00
C 585.26 740.53 587.02 739.81 588.00 740.00 Z"/>
</g>
<g fill="None" fill-opacity="0.0" stroke="#4C4C4A" stroke-opacity="1.00" stroke-width="0.3"><path d="
M 588.00 740.00 
C 593.18 739.39 599.58 741.25 604.00 739.00
C 601.44 738.54 588.89 740.49 591.00 737.00
C 591.00 737.00 590.50 737.00 590.00 737.00
C 589.37 737.57 588.80 739.57 588.00 740.00 Z"/>
</g>
<g fill="None" fill-opacity="0.0" stroke="#6F706F" stroke-opacity="1.00" stroke-width="0.3"><path d="
M 627.00 739.00 
C 627.44 738.90 628.64 737.13 629.00 737.00
C 627.67 737.00 626.33 737.00 625.00 737.00
C 624.89 738.34 625.55 739.32 627.00 739.00 Z"/>
</g>
<g fill="None" fill-opacity="0.0" stroke="#CBCBCB" stroke-opacity="1.00" stroke-width="0.3"><path d="
M 627.00 739.00 
C 635.64 738.22 644.97 742.03 653.00 739.00
C 645.85 738.72 636.49 734.38 629.00 737.00
C 628.64 737.13 627.44 738.90 627.00 739.00 Z"/>
</g>
<g fill="None" fill-opacity="0.0" stroke="#BBBBB8" stroke-opacity="1.00" stroke-width="0.3"><path d="
M 553.00 739.00 
C 549.82 739.53 545.43 737.87 543.00 740.00
C 546.18 739.47 550.57 741.13 553.00 739.00 Z"/>
</g>
<g fill="None" fill-opacity="0.0" stroke="#8E8E8E" stroke-opacity="1.00" stroke-width="0.3"><path d="
M 263.00 751.00 
C 263.00 751.04 264.00 751.00 264.00 751.00
C 264.33 747.36 263.75 743.64 264.00 740.00
C 261.99 741.41 262.78 748.51 263.00 751.00 Z"/>
</g>
<g fill="None" fill-opacity="0.0" stroke="#7B797C" stroke-opacity="1.00" stroke-width="0.3"><path d="
M 121.00 754.00 
C 122.78 752.48 124.33 750.67 126.00 749.00
C 124.22 750.52 122.67 752.33 121.00 754.00 Z"/>
</g>
<g fill="None" fill-opacity="0.0" stroke="#636364" stroke-opacity="1.00" stroke-width="0.3"><path d="
M 721.00 752.00 
C 710.53 754.32 698.75 750.95 688.00 752.00 C 677.25 753.05 665.85 751.52 655.00 752.00 C 644.15 752.48 632.86 751.78 622.00 752.00 C 611.14 752.22 600.87 751.91 590.00 752.00 C 579.13 752.09 567.91 751.96 557.00 752.00 C 546.09 752.04 534.88 751.99 524.00 752.00 C 513.12 752.01 502.88 752.01 492.00 752.00 C 481.12 751.99 469.91 752.03 459.00 752.00 C 448.09 751.97 436.88 752.07 426.00 752.00 C 415.12 751.93 403.78 752.16 393.00 752.00 C 382.22 751.84 371.61 752.36 361.00 752.00 C 350.39 751.64 338.32 752.78 328.00 752.00 C 317.68 751.22 304.58 753.71 295.00 752.00 C 285.42 750.29 271.27 756.40 264.00 751.00
C 264.00 751.00 263.00 751.04 263.00 751.00
C 264.03 755.81 277.90 752.14 283.00 753.00 C 288.10 753.86 298.68 752.61 305.00 753.00 C 311.32 753.39 320.12 752.82 327.00 753.00 C 333.88 753.18 341.87 752.92 349.00 753.00 C 356.13 753.08 363.76 752.96 371.00 753.00 C 378.24 753.04 385.71 752.98 393.00 753.00 C 400.29 753.02 407.69 752.99 415.00 753.00 C 422.31 753.01 429.67 753.00 437.00 753.00 C 444.33 753.00 451.67 753.00 459.00 753.00 C 466.33 753.00 473.67 753.00 481.00 753.00 C 488.33 753.00 495.67 753.00 503.00 753.00 C 510.33 753.00 517.67 753.00 525.00 753.00 C 532.33 753.00 539.67 753.00 547.00 753.00 C 554.33 753.00 561.67 753.00 569.00 753.00 C 576.33 753.00 583.67 753.01 591.00 753.00 C 598.33 752.99 605.68 753.01 613.00 753.00 C 620.32 752.99 627.70 753.03 635.00 753.00 C 642.30 752.97 649.74 753.07 657.00 753.00 C 664.27 752.93 671.82 753.15 679.00 753.00 C 686.18 752.85 694.00 753.33 701.00 753.00 C 708.00 752.67 714.95 754.23 721.00 752.00 Z"/>
</g>
<g fill="None" fill-opacity="0.0" stroke="#79797A" stroke-opacity="1.00" stroke-width="0.3"><path d="
M 159.00 766.00 
C 162.87 762.13 167.08 757.92 171.00 754.00
C 166.76 757.62 162.66 761.71 159.00 766.00 Z"/>
</g>
<g fill="None" fill-opacity="0.0" stroke="#828083" stroke-opacity="1.00" stroke-width="0.3"><path d="
M 103.00 770.00 
C 105.13 768.18 107.00 766.00 109.00 764.00
C 106.87 765.82 105.00 768.00 103.00 770.00 Z"/>
</g>
<g fill="None" fill-opacity="0.0" stroke="#7E7D7E" stroke-opacity="1.00" stroke-width="0.3"><path d="
M 66.00 806.00 
C 74.54 797.46 83.41 788.58 92.00 780.00
C 82.94 787.74 73.79 796.89 66.00 806.00 Z"/>
</g>
<g fill="None" fill-opacity="0.0" stroke="#79787A" stroke-opacity="1.00" stroke-width="0.3"><path d="
M 32.00 793.00 
C 30.72 796.75 33.67 792.56 35.00 791.00
C 34.23 791.70 32.76 792.20 32.00 793.00 Z"/>
</g>
<g fill="None" fill-opacity="0.0" stroke="#787879" stroke-opacity="1.00" stroke-width="0.3"><path d="
M 132.00 794.00 
C 130.79 797.73 133.64 793.60 135.00 792.00
C 134.23 792.70 132.76 793.20 132.00 794.00 Z"/>
</g>
<g fill="None" fill-opacity="0.0" stroke="#8F8F8E" stroke-opacity="1.00" stroke-width="0.3"><path d="
M 322.00 793.00 
C 325.00 793.00 328.00 793.00 331.00 793.00
C 328.24 792.73 324.82 792.73 322.00 793.00 Z"/>
</g>
<g fill="None" fill-opacity="0.0" stroke="#8E8F8E" stroke-opacity="1.00" stroke-width="0.3"><path d="
M 523.00 793.00 
C 526.33 793.00 529.67 793.00 533.00 793.00
C 529.92 792.70 526.14 792.70 523.00 793.00 Z"/>
</g>
<g fill="None" fill-opacity="0.0" stroke="#0F0F0F" stroke-opacity="1.00" stroke-width="0.3"><path d="
M 331.00 793.00 
C 328.00 793.00 325.00 793.00 322.00 793.00
C 307.23 792.82 289.39 795.84 279.31 807.31 C 269.22 818.77 275.80 841.07 289.78 845.22 C 303.76 849.38 322.53 855.56 337.00 855.00 C 351.47 854.44 373.37 866.41 362.75 881.75 C 352.13 897.09 332.75 891.28 317.67 892.33 C 302.59 893.38 286.95 884.78 274.00 879.00
C 273.33 882.88 268.33 884.91 268.00 889.00
C 282.47 896.64 297.26 900.83 313.78 902.22 C 330.29 903.62 349.14 903.01 363.77 895.77 C 378.40 888.53 383.61 869.93 373.75 857.25 C 363.90 844.57 343.84 846.07 330.67 842.33 C 317.50 838.59 293.56 842.69 287.98 826.02 C 282.39 809.36 306.96 802.35 321.00 803.00 C 335.04 803.65 356.78 805.51 370.00 812.00
C 370.67 809.28 372.49 806.52 375.00 805.00
C 362.62 796.73 346.38 793.00 331.00 793.00 Z"/>
</g>
<g fill="None" fill-opacity="0.0" stroke="#101010" stroke-opacity="1.00" stroke-width="0.3"><path d="
M 533.00 793.00 
C 529.67 793.00 526.33 793.00 523.00 793.00
C 480.27 788.58 439.54 840.06 467.70 876.30 C 495.86 912.54 548.40 908.54 583.00 887.00
C 582.06 883.04 577.48 880.88 576.00 877.00
C 546.79 904.21 473.26 897.88 472.00 849.00 C 470.74 800.12 545.42 790.06 574.00 819.00
C 576.33 815.43 579.30 812.39 582.00 809.00
C 567.72 798.57 550.93 793.00 533.00 793.00 Z"/>
</g>
<g fill="None" fill-opacity="0.0" stroke="#0B0A0B" stroke-opacity="1.00" stroke-width="0.3"><path d="
M 675.00 805.00 
C 675.00 836.67 675.00 868.34 675.00 900.00
C 679.00 900.00 683.00 900.00 687.00 900.00
C 687.00 865.00 687.00 830.00 687.00 795.00
C 683.00 795.00 679.00 795.00 675.00 795.00
C 675.00 798.33 675.00 801.67 675.00 805.00 Z"/>
</g>
<g fill="None" fill-opacity="0.0" stroke="#7F8180" stroke-opacity="1.00" stroke-width="0.3"><path d="
M 687.00 900.00 
C 683.00 900.00 679.00 900.00 675.00 900.00
C 675.00 868.34 675.00 836.67 675.00 805.00
C 674.37 811.55 673.80 819.69 674.00 827.00 C 674.20 834.31 674.34 841.71 674.00 849.00 C 673.66 856.29 675.10 863.76 674.00 871.00 C 672.90 878.24 676.61 885.88 674.00 893.00 C 671.39 900.12 683.16 905.48 687.00 900.00 Z"/>
</g>
<g fill="None" fill-opacity="0.0" stroke="#000000" stroke-opacity="1.00" stroke-width="0.3"><path d="
M 419.00 843.00 
C 409.56 840.61 405.10 854.37 414.33 857.67 C 423.56 860.97 427.81 845.23 419.00 843.00 Z"/>
</g>
<g fill="None" fill-opacity="0.0" stroke="#000000" stroke-opacity="1.00" stroke-width="0.3"><path d="
M 623.00 843.00 
C 613.56 840.61 609.10 854.37 618.33 857.67 C 627.56 860.97 631.81 845.23 623.00 843.00 Z"/>
</g>
<g fill="None" fill-opacity="0.0" stroke="#161616" stroke-opacity="1.00" stroke-width="0.3"><path d="
M 688.00 936.00 
C 676.81 936.00 665.14 936.00 654.00 936.00 C 642.86 936.00 632.07 936.00 621.00 936.00 C 609.93 936.00 599.04 936.00 588.00 936.00 C 576.96 936.00 566.03 936.00 555.00 936.00 C 543.97 936.00 533.05 936.00 522.00 936.00 C 510.95 936.00 500.09 935.99 489.00 936.00 C 477.91 936.01 466.08 935.98 455.00 936.00 C 443.92 936.02 433.00 935.96 422.00 936.00 C 411.00 936.04 399.92 935.91 389.00 936.00 C 378.08 936.09 366.78 935.80 356.00 936.00 C 345.22 936.20 333.51 935.55 323.00 936.00 C 312.49 936.45 299.90 935.00 290.00 936.00 C 280.10 937.00 263.42 930.88 264.00 943.00
C 275.19 943.00 286.86 943.00 298.00 943.00 C 309.14 943.00 319.93 943.00 331.00 943.00 C 342.07 943.00 352.96 943.00 364.00 943.00 C 375.04 943.00 385.97 943.00 397.00 943.00 C 408.03 943.00 418.95 943.00 430.00 943.00 C 441.05 943.00 451.91 943.01 463.00 943.00 C 474.09 942.99 485.92 943.02 497.00 943.00 C 508.08 942.98 519.00 943.04 530.00 943.00 C 541.00 942.96 552.08 943.09 563.00 943.00 C 573.92 942.91 585.22 943.20 596.00 943.00 C 606.78 942.80 618.50 943.45 629.00 943.00 C 639.51 942.55 652.10 944.00 662.00 943.00 C 671.90 942.00 688.58 948.12 688.00 936.00 Z"/>
</g>
<g fill="#FCFCFC" fill-opacity="1.00" stroke="None">
<path d="
M 0.00 963.00 
L 963.00 963.00
L 963.00 0.00
L 0.00 0.00
L 0.00 963.00
M 492.00 16.00 
C 525.97 16.00 567.53 24.53 598.02 34.98 C 628.52 45.42 656.43 58.63 682.23 75.77 C 708.03 92.91 730.73 108.28 751.00 132.00
C 753.66 134.66 756.57 137.16 759.00 140.00
C 822.78 214.65 865.21 303.78 868.00 403.00
C 868.17 404.47 868.94 406.90 869.00 409.00
C 870.15 449.82 864.60 498.24 855.22 535.22 C 845.84 572.21 833.21 603.67 815.70 635.70 C 798.18 667.72 780.49 689.51 757.00 717.00
C 754.53 719.89 751.61 722.39 749.00 725.00
C 742.26 732.89 730.56 748.47 721.00 752.00
C 714.95 754.23 708.00 752.67 701.00 753.00 C 694.00 753.33 686.18 752.85 679.00 753.00 C 671.82 753.15 664.27 752.93 657.00 753.00 C 649.74 753.07 642.30 752.97 635.00 753.00 C 627.70 753.03 620.32 752.99 613.00 753.00 C 605.68 753.01 598.33 752.99 591.00 753.00 C 583.67 753.01 576.33 753.00 569.00 753.00 C 561.67 753.00 554.33 753.00 547.00 753.00 C 539.67 753.00 532.33 753.00 525.00 753.00 C 517.67 753.00 510.33 753.00 503.00 753.00 C 495.67 753.00 488.33 753.00 481.00 753.00 C 473.67 753.00 466.33 753.00 459.00 753.00 C 451.67 753.00 444.33 753.00 437.00 753.00 C 429.67 753.00 422.31 753.01 415.00 753.00 C 407.69 752.99 400.29 753.02 393.00 753.00 C 385.71 752.98 378.24 753.04 371.00 753.00 C 363.76 752.96 356.13 753.08 349.00 753.00 C 341.87 752.92 333.88 753.18 327.00 753.00 C 320.12 752.82 311.32 753.39 305.00 753.00 C 298.68 752.61 288.10 753.86 283.00 753.00 C 277.90 752.14 264.03 755.81 263.00 751.00
C 262.78 748.51 261.99 741.41 264.00 740.00
C 268.55 736.81 278.14 741.37 284.00 740.00 C 289.86 738.63 298.62 740.65 305.00 740.00 C 311.38 739.35 318.35 740.28 325.00 740.00 C 331.65 739.72 339.25 740.13 346.00 740.00 C 352.75 739.87 359.19 740.06 366.00 740.00 C 372.81 739.94 380.17 740.03 387.00 740.00 C 393.83 739.97 400.15 740.01 407.00 740.00 C 413.85 739.99 421.14 740.01 428.00 740.00 C 434.86 739.99 441.11 740.00 448.00 740.00 C 454.89 740.00 462.06 740.00 469.00 740.00 C 475.94 740.00 483.04 740.00 490.00 740.00
C 493.63 732.48 499.09 725.44 497.00 716.00
C 492.95 717.12 489.20 719.23 485.00 720.00
C 498.18 710.18 498.76 694.27 498.00 679.00
C 497.83 677.53 497.06 675.10 497.00 673.00
C 496.55 656.95 491.89 642.36 491.00 627.00
C 490.64 624.74 490.65 623.20 491.00 621.00
C 491.43 613.62 498.38 606.46 497.00 599.00
C 495.62 596.95 489.39 598.00 487.00 598.00
C 471.46 598.00 456.89 602.19 443.00 608.00
C 472.34 586.11 509.29 572.27 542.08 557.08 C 574.86 541.88 604.64 520.49 624.77 489.77 C 644.90 459.05 657.56 405.68 621.00 382.00
C 646.47 418.48 627.34 467.77 601.70 498.70 C 576.05 529.63 543.06 550.79 506.77 564.77 C 470.48 578.76 434.74 598.28 404.00 623.00
C 409.11 612.49 415.26 602.13 423.00 593.00
C 333.25 635.77 246.63 686.70 171.00 754.00
C 167.08 757.92 162.87 762.13 159.00 766.00
C 151.35 774.95 142.51 783.21 135.00 792.00
C 133.64 793.60 130.79 797.73 132.00 794.00
C 136.37 780.53 150.67 769.50 158.30 757.30 C 165.94 745.10 178.75 735.41 189.25 725.25 C 199.75 715.09 211.47 705.37 222.75 695.75 C 234.03 686.13 246.32 676.27 258.25 667.25 C 270.17 658.22 282.12 648.90 294.70 640.70 C 307.28 632.49 319.24 622.96 332.25 615.25 C 345.25 607.53 357.75 598.99 368.00 587.00
C 369.86 584.82 372.05 582.95 374.00 581.00
C 387.41 565.31 399.91 549.07 409.00 531.00
C 281.73 613.17 143.46 678.51 35.00 791.00
C 33.67 792.56 30.72 796.75 32.00 793.00
C 34.86 784.63 44.06 778.49 49.25 771.25 C 54.44 764.00 62.13 756.87 68.00 750.00
C 74.90 741.92 82.97 733.86 91.00 727.00
C 92.94 725.34 95.11 723.61 97.00 722.00
C 98.67 720.33 100.22 718.52 102.00 717.00
C 143.27 681.74 185.48 651.10 230.25 621.25 C 275.02 591.39 321.21 561.01 367.70 533.70 C 414.18 506.39 445.95 463.63 483.25 424.25 C 520.55 384.87 591.15 381.83 606.00 322.00
C 613.56 323.66 620.86 326.51 629.00 326.00
C 631.17 326.06 633.51 326.80 635.00 327.00
C 653.65 327.87 672.84 334.88 679.32 353.68 C 685.80 372.48 691.59 392.31 692.00 413.00
C 692.17 414.75 692.95 417.60 693.00 420.00
C 693.07 423.64 693.15 427.36 693.00 431.00
C 692.93 432.84 692.17 434.82 692.00 436.00
C 690.40 476.43 671.88 509.71 646.00 540.00
C 643.81 542.56 641.51 544.85 639.00 547.00
C 628.93 555.61 619.76 562.06 609.77 570.77 C 599.78 579.48 593.50 589.55 587.70 601.69 C 581.89 613.84 577.64 631.30 579.00 646.00 C 580.36 660.70 584.52 674.51 589.32 688.68 C 594.12 702.85 598.11 710.59 608.08 722.92 C 618.05 735.25 637.53 725.01 649.69 734.31 C 661.86 743.60 681.31 737.46 697.00 740.00 C 712.69 742.54 723.35 732.56 732.75 721.75 C 742.15 710.94 750.00 704.82 758.25 694.25 C 766.49 683.68 774.06 675.26 781.25 664.25 C 788.45 653.25 795.50 643.48 801.77 631.77 C 808.04 620.06 813.95 609.14 819.77 596.77 C 825.60 584.40 829.92 571.82 834.32 558.32 C 838.72 544.83 842.46 530.99 845.33 516.33 C 848.19 501.66 851.30 486.68 852.98 470.98 C 854.66 455.28 855.00 435.42 855.00 419.00
C 854.77 416.58 854.00 413.10 854.00 410.00
C 854.00 372.26 843.95 327.13 833.02 292.98 C 822.10 258.83 806.17 229.58 787.25 200.75 C 768.33 171.93 749.85 149.88 723.75 126.25 C 697.65 102.61 673.39 86.75 641.77 70.23 C 610.15 53.71 574.35 43.24 537.98 36.02 C 501.60 28.81 447.30 29.75 411.00 37.00 C 374.70 44.25 340.69 56.61 308.77 72.77 C 276.85 88.93 254.01 105.92 227.00 129.00
C 225.33 130.67 223.78 132.48 222.00 134.00
C 196.01 156.21 179.09 179.27 160.08 207.08 C 141.08 234.89 127.18 264.69 115.68 297.68 C 104.17 330.67 94.74 374.22 94.00 411.00
C 93.95 413.41 93.16 416.30 93.00 418.00
C 92.85 425.66 93.00 433.34 93.00 441.00
C 93.20 443.10 94.00 446.23 94.00 449.00
C 94.00 521.73 122.65 590.32 159.00 651.00
C 154.65 652.75 151.45 656.75 147.00 658.00
C 43.67 505.72 60.28 282.82 187.00 148.00
C 189.16 145.47 191.72 143.28 194.00 141.00
C 226.61 102.84 261.89 79.48 305.69 56.69 C 349.50 33.91 409.51 16.00 461.00 16.00
C 470.75 15.06 482.32 15.06 492.00 16.00
M 696.00 225.00 
C 698.00 226.48 699.55 228.06 701.00 230.00
C 703.24 233.01 705.08 236.41 706.00 240.00
C 697.18 235.78 689.50 238.90 680.92 241.92 C 672.35 244.95 673.30 254.50 666.25 259.25 C 659.19 264.00 655.78 273.04 658.00 282.00 C 660.22 290.96 662.44 298.48 664.93 307.07 C 667.42 315.67 668.94 323.63 672.00 332.00
C 659.20 308.23 631.10 310.26 609.00 304.00
C 609.77 286.89 606.09 270.91 606.00 254.00
C 606.06 251.78 606.76 249.55 607.00 248.00
C 608.15 230.13 618.79 210.43 640.00 213.00
C 635.70 217.21 632.98 222.73 637.25 228.75 C 641.53 234.76 649.67 230.24 653.75 228.75 C 657.82 227.25 668.92 222.99 663.23 218.77 C 657.54 214.55 652.54 215.62 646.93 212.07 C 641.32 208.52 631.86 211.33 625.98 211.98 C 620.09 212.62 616.70 218.13 612.75 221.75 C 608.79 225.36 599.80 219.21 596.00 217.00
C 594.22 215.68 591.89 214.09 591.00 212.00
C 590.58 211.00 589.73 210.23 590.00 209.00
C 610.53 213.67 629.74 201.43 650.00 202.00 C 670.26 202.57 678.42 219.07 696.00 225.00
M 649.00 217.00 
C 655.05 219.26 650.04 230.00 644.00 227.00 C 637.96 223.99 642.23 214.46 649.00 217.00
M 606.00 320.00 
C 607.70 315.62 607.16 309.97 609.00 306.00
C 611.03 309.79 610.49 318.33 606.00 320.00
M 373.00 573.00 
C 371.14 575.18 368.95 577.05 367.00 579.00
C 334.35 617.20 285.02 634.10 245.30 662.30 C 205.59 690.51 163.60 716.87 126.00 749.00
C 124.33 750.67 122.78 752.48 121.00 754.00
C 117.04 757.39 112.96 760.62 109.00 764.00
C 107.00 766.00 105.13 768.18 103.00 770.00
C 99.27 773.18 95.68 776.86 92.00 780.00
C 83.41 788.58 74.54 797.46 66.00 806.00
C 54.94 818.94 42.71 831.24 32.00 844.00
C 116.57 706.74 264.96 630.25 394.00 547.00
C 388.23 556.47 380.06 564.37 373.00 573.00
M 331.00 793.00 
C 346.38 793.00 362.62 796.73 375.00 805.00
C 372.49 806.52 370.67 809.28 370.00 812.00
C 356.78 805.51 335.04 803.65 321.00 803.00 C 306.96 802.35 282.39 809.36 287.98 826.02 C 293.56 842.69 317.50 838.59 330.67 842.33 C 343.84 846.07 363.90 844.57 373.75 857.25 C 383.61 869.93 378.40 888.53 363.77 895.77 C 349.14 903.01 330.29 903.62 313.78 902.22 C 297.26 900.83 282.47 896.64 268.00 889.00
C 268.33 884.91 273.33 882.88 274.00 879.00
C 286.95 884.78 302.59 893.38 317.67 892.33 C 332.75 891.28 352.13 897.09 362.75 881.75 C 373.37 866.41 351.47 854.44 337.00 855.00 C 322.53 855.56 303.76 849.38 289.78 845.22 C 275.80 841.07 269.22 818.77 279.31 807.31 C 289.39 795.84 307.23 792.82 322.00 793.00
C 324.82 792.73 328.24 792.73 331.00 793.00
M 533.00 793.00 
C 550.93 793.00 567.72 798.57 582.00 809.00
C 579.30 812.39 576.33 815.43 574.00 819.00
C 545.42 790.06 470.74 800.12 472.00 849.00 C 473.26 897.88 546.79 904.21 576.00 877.00
C 577.48 880.88 582.06 883.04 583.00 887.00
C 548.40 908.54 495.86 912.54 467.70 876.30 C 439.54 840.06 480.27 788.58 523.00 793.00
C 526.14 792.70 529.92 792.70 533.00 793.00
M 687.00 900.00 
C 683.16 905.48 671.39 900.12 674.00 893.00 C 676.61 885.88 672.90 878.24 674.00 871.00 C 675.10 863.76 673.66 856.29 674.00 849.00 C 674.34 841.71 674.20 834.31 674.00 827.00 C 673.80 819.69 674.37 811.55 675.00 805.00
C 675.00 801.67 675.00 798.33 675.00 795.00
C 679.00 795.00 683.00 795.00 687.00 795.00
C 687.00 830.00 687.00 865.00 687.00 900.00
M 419.00 843.00 
C 427.81 845.23 423.56 860.97 414.33 857.67 C 405.10 854.37 409.56 840.61 419.00 843.00
M 623.00 843.00 
C 631.81 845.23 627.56 860.97 618.33 857.67 C 609.10 854.37 613.56 840.61 623.00 843.00
M 688.00 936.00 
C 688.58 948.12 671.90 942.00 662.00 943.00 C 652.10 944.00 639.51 942.55 629.00 943.00 C 618.50 943.45 606.78 942.80 596.00 943.00 C 585.22 943.20 573.92 942.91 563.00 943.00 C 552.08 943.09 541.00 942.96 530.00 943.00 C 519.00 943.04 508.08 942.98 497.00 943.00 C 485.92 943.02 474.09 942.99 463.00 943.00 C 451.91 943.01 441.05 943.00 430.00 943.00 C 418.95 943.00 408.03 943.00 397.00 943.00 C 385.97 943.00 375.04 943.00 364.00 943.00 C 352.96 943.00 342.07 943.00 331.00 943.00 C 319.93 943.00 309.14 943.00 298.00 943.00 C 286.86 943.00 275.19 943.00 264.00 943.00
C 263.42 930.88 280.10 937.00 290.00 936.00 C 299.90 935.00 312.49 936.45 323.00 936.00 C 333.51 935.55 345.22 936.20 356.00 936.00 C 366.78 935.80 378.08 936.09 389.00 936.00 C 399.92 935.91 411.00 936.04 422.00 936.00 C 433.00 935.96 443.92 936.02 455.00 936.00 C 466.08 935.98 477.91 936.01 489.00 936.00 C 500.09 935.99 510.95 936.00 522.00 936.00 C 533.05 936.00 543.97 936.00 555.00 936.00 C 566.03 936.00 576.96 936.00 588.00 936.00 C 599.04 936.00 609.93 936.00 621.00 936.00 C 632.07 936.00 642.86 936.00 654.00 936.00 C 665.14 936.00 676.81 936.00 688.00 936.00 Z"/>
</g>
<g fill="#707171" fill-opacity="1.00" stroke="None">
<path d="
M 461.00 16.00 
C 471.33 16.00 481.67 16.00 492.00 16.00
C 482.32 15.06 470.75 15.06 461.00 16.00 Z"/>
</g>
<g fill="#0F0F0F" fill-opacity="1.00" stroke="None">
<path d="
M 194.00 141.00 
C 191.84 143.53 189.28 145.72 187.00 148.00
C 60.28 282.82 43.67 505.72 147.00 658.00
C 151.45 656.75 154.65 652.75 159.00 651.00
C 122.65 590.32 94.00 521.73 94.00 449.00
C 93.80 446.90 93.00 443.77 93.00 441.00
C 93.00 433.34 92.85 425.66 93.00 418.00
C 93.05 415.59 93.84 412.70 94.00 411.00
C 94.74 374.22 104.17 330.67 115.68 297.68 C 127.18 264.69 141.08 234.89 160.08 207.08 C 179.09 179.27 196.01 156.21 222.00 134.00
C 223.67 132.33 225.22 130.52 227.00 129.00
C 254.01 105.92 276.85 88.93 308.77 72.77 C 340.69 56.61 374.70 44.25 411.00 37.00 C 447.30 29.75 501.60 28.81 537.98 36.02 C 574.35 43.24 610.15 53.71 641.77 70.23 C 673.39 86.75 697.65 102.61 723.75 126.25 C 749.85 149.88 768.33 171.93 787.25 200.75 C 806.17 229.58 822.10 258.83 833.02 292.98 C 843.95 327.13 854.00 372.26 854.00 410.00
C 854.23 412.42 855.00 415.91 855.00 419.00
C 855.00 435.42 854.66 455.28 852.98 470.98 C 851.30 486.68 848.19 501.66 845.33 516.33 C 842.46 530.99 838.72 544.83 834.32 558.32 C 829.92 571.82 825.60 584.40 819.77 596.77 C 813.95 609.14 808.04 620.06 801.77 631.77 C 795.50 643.48 788.45 653.25 781.25 664.25 C 774.06 675.26 766.49 683.68 758.25 694.25 C 750.00 704.82 742.15 710.94 732.75 721.75 C 723.35 732.56 712.69 742.54 697.00 740.00 C 681.31 737.46 661.86 743.60 649.69 734.31 C 637.53 725.01 618.05 735.25 608.08 722.92 C 598.11 710.59 594.12 702.85 589.32 688.68 C 584.52 674.51 580.36 660.70 579.00 646.00 C 577.64 631.30 581.89 613.84 587.70 601.69 C 593.50 589.55 599.78 579.48 609.77 570.77 C 619.76 562.06 628.93 555.61 639.00 547.00
C 641.26 544.74 643.79 542.21 646.00 540.00
C 671.88 509.71 690.40 476.43 692.00 436.00
C 692.07 434.16 692.83 432.18 693.00 431.00
C 693.15 427.36 693.07 423.64 693.00 420.00
C 692.83 418.25 692.05 415.40 692.00 413.00
C 691.59 392.31 685.80 372.48 679.32 353.68 C 672.84 334.88 653.65 327.87 635.00 327.00
C 632.92 326.90 630.40 326.16 629.00 326.00
C 620.86 326.51 613.56 323.66 606.00 322.00
C 591.15 381.83 520.55 384.87 483.25 424.25 C 445.95 463.63 414.18 506.39 367.70 533.70 C 321.21 561.01 275.02 591.39 230.25 621.25 C 185.48 651.10 143.27 681.74 102.00 717.00
C 100.33 718.67 98.78 720.48 97.00 722.00
C 95.11 723.61 92.94 725.34 91.00 727.00
C 83.42 734.58 75.54 742.46 68.00 750.00
C 62.13 756.87 54.44 764.00 49.25 771.25 C 44.06 778.49 34.86 784.63 32.00 793.00
C 32.76 792.20 34.23 791.70 35.00 791.00
C 143.46 678.51 281.73 613.17 409.00 531.00
C 399.91 549.07 387.41 565.31 374.00 581.00
C 372.14 583.18 369.95 585.05 368.00 587.00
C 357.75 598.99 345.25 607.53 332.25 615.25 C 319.24 622.96 307.28 632.49 294.70 640.70 C 282.12 648.90 270.17 658.22 258.25 667.25 C 246.32 676.27 234.03 686.13 222.75 695.75 C 211.47 705.37 199.75 715.09 189.25 725.25 C 178.75 735.41 165.94 745.10 158.30 757.30 C 150.67 769.50 136.37 780.53 132.00 794.00
C 132.76 793.20 134.23 792.70 135.00 792.00
C 142.51 783.21 151.35 774.95 159.00 766.00
C 162.66 761.71 166.76 757.62 171.00 754.00
C 246.63 686.70 333.25 635.77 423.00 593.00
C 415.26 602.13 409.11 612.49 404.00 623.00
C 434.74 598.28 470.48 578.76 506.77 564.77 C 543.06 550.79 576.05 529.63 601.70 498.70 C 627.34 467.77 646.47 418.48 621.00 382.00
C 657.56 405.68 644.90 459.05 624.77 489.77 C 604.64 520.49 574.86 541.88 542.08 557.08 C 509.29 572.27 472.34 586.11 443.00 608.00
C 456.89 602.19 471.46 598.00 487.00 598.00
C 490.36 597.67 496.30 595.23 497.00 599.00
C 498.38 606.46 491.43 613.62 491.00 621.00
C 490.89 622.95 490.89 625.05 491.00 627.00
C 491.89 642.36 496.55 656.95 497.00 673.00
C 497.17 674.47 497.94 676.90 498.00 679.00
C 498.76 694.27 498.18 710.18 485.00 720.00
C 489.20 719.23 492.95 717.12 497.00 716.00
C 499.09 725.44 493.63 732.48 490.00 740.00
C 483.04 740.00 475.94 740.00 469.00 740.00 C 462.06 740.00 454.89 740.00 448.00 740.00 C 441.11 740.00 434.86 739.99 428.00 740.00 C 421.14 740.01 413.85 739.99 407.00 740.00 C 400.15 740.01 393.83 739.97 387.00 740.00 C 380.17 740.03 372.81 739.94 366.00 740.00 C 359.19 740.06 352.75 739.87 346.00 740.00 C 339.25 740.13 331.65 739.72 325.00 740.00 C 318.35 740.28 311.38 739.35 305.00 740.00 C 298.62 740.65 289.86 738.63 284.00 740.00 C 278.14 741.37 268.55 736.81 264.00 740.00
C 263.75 743.64 264.33 747.36 264.00 751.00
C 271.27 756.40 285.42 750.29 295.00 752.00 C 304.58 753.71 317.68 751.22 328.00 752.00 C 338.32 752.78 350.39 751.64 361.00 752.00 C 371.61 752.36 382.22 751.84 393.00 752.00 C 403.78 752.16 415.12 751.93 426.00 752.00 C 436.88 752.07 448.09 751.97 459.00 752.00 C 469.91 752.03 481.12 751.99 492.00 752.00 C 502.88 752.01 513.12 752.01 524.00 752.00 C 534.88 751.99 546.09 752.04 557.00 752.00 C 567.91 751.96 579.13 752.09 590.00 752.00 C 600.87 751.91 611.14 752.22 622.00 752.00 C 632.86 751.78 644.15 752.48 655.00 752.00 C 665.85 751.52 677.25 753.05 688.00 752.00 C 698.75 750.95 710.53 754.32 721.00 752.00
C 730.56 748.47 742.26 732.89 749.00 725.00
C 751.47 722.11 754.39 719.61 757.00 717.00
C 780.49 689.51 798.18 667.72 815.70 635.70 C 833.21 603.67 845.84 572.21 855.22 535.22 C 864.60 498.24 870.15 449.82 869.00 409.00
C 868.83 407.53 868.06 405.10 868.00 403.00
C 865.21 303.78 822.78 214.65 759.00 140.00
C 756.34 137.34 753.43 134.84 751.00 132.00
C 730.73 108.28 708.03 92.91 682.23 75.77 C 656.43 58.63 628.52 45.42 598.02 34.98 C 567.53 24.53 525.97 16.00 492.00 16.00
C 481.67 16.00 471.33 16.00 461.00 16.00
C 409.51 16.00 349.50 33.91 305.69 56.69 C 261.89 79.48 226.61 102.84 194.00 141.00
M 467.00 511.00 
C 465.14 513.18 462.95 515.05 461.00 517.00
C 451.35 528.29 443.86 539.75 436.23 552.23 C 428.60 564.71 425.36 580.65 413.00 590.00
C 429.04 541.48 450.75 490.82 483.75 450.75 C 516.75 410.68 562.24 367.47 617.00 380.00
C 606.89 381.35 595.90 382.49 586.00 386.00
C 619.52 389.34 612.64 428.22 597.23 447.23 C 581.81 466.24 564.19 481.10 544.30 494.30 C 524.42 507.51 504.78 521.28 485.77 535.77 C 466.76 550.26 451.87 569.46 435.00 586.00
C 447.24 547.61 469.27 512.85 499.00 484.00
C 487.51 491.21 476.76 501.22 467.00 511.00
M 551.00 605.00 
C 551.00 606.66 551.05 608.34 551.00 610.00
C 550.95 611.87 550.17 613.80 550.00 615.00
C 549.23 634.37 565.39 648.72 570.92 666.08 C 576.46 683.43 589.57 704.49 575.00 721.00
C 581.03 718.63 586.87 711.95 588.78 721.22 C 590.68 730.50 582.92 732.44 581.00 740.00
C 568.85 743.66 559.98 736.55 549.93 734.07 C 539.87 731.59 527.10 735.97 518.77 728.23 C 510.44 720.49 509.06 711.84 508.01 700.99 C 506.96 690.14 508.31 675.45 508.99 664.99 C 509.67 654.54 512.33 643.33 516.31 634.31 C 520.28 625.28 524.14 618.40 529.77 610.77 C 535.40 603.14 541.85 596.10 551.00 594.00
C 553.91 595.82 551.21 603.00 551.00 605.00
M 597.00 734.00 
C 599.40 736.51 600.84 736.65 598.00 737.00
C 595.74 737.28 593.28 737.00 591.00 737.00
C 588.89 740.49 601.44 738.54 604.00 739.00
C 599.58 741.25 593.18 739.39 588.00 740.00
C 587.02 739.81 585.26 740.53 585.00 739.00
C 586.34 738.27 587.64 737.66 589.00 737.00
C 590.09 734.40 593.50 731.60 596.00 731.00
C 595.47 732.28 596.97 732.86 597.00 734.00
M 505.00 738.00 
C 501.23 737.16 498.32 739.14 495.00 740.00
C 496.73 737.08 500.09 735.35 501.00 732.00
C 503.61 732.08 504.44 735.84 505.00 738.00
M 627.00 739.00 
C 625.55 739.32 624.89 738.34 625.00 737.00
C 626.33 737.00 627.67 737.00 629.00 737.00
C 636.49 734.38 645.85 738.72 653.00 739.00
C 644.97 742.03 635.64 738.22 627.00 739.00
M 553.00 739.00 
C 550.57 741.13 546.18 739.47 543.00 740.00
C 545.43 737.87 549.82 739.53 553.00 739.00 Z"/>
</g>
<g fill="#7C7A7F" fill-opacity="1.00" stroke="None">
<path d="
M 222.00 134.00 
C 223.78 132.48 225.33 130.67 227.00 129.00
C 225.22 130.52 223.67 132.33 222.00 134.00 Z"/>
</g>
<g fill="#838381" fill-opacity="1.00" stroke="None">
<path d="
M 759.00 140.00 
C 756.57 137.16 753.66 134.66 751.00 132.00
C 753.43 134.84 756.34 137.34 759.00 140.00 Z"/>
</g>
<g fill="#777879" fill-opacity="1.00" stroke="None">
<path d="
M 187.00 148.00 
C 189.28 145.72 191.84 143.53 194.00 141.00
C 191.72 143.28 189.16 145.47 187.00 148.00 Z"/>
</g>
<g fill="#0F100F" fill-opacity="1.00" stroke="None">
<path d="
M 591.00 212.00 
C 591.61 213.09 595.02 216.14 596.00 217.00
C 599.80 219.21 608.79 225.36 612.75 221.75 C 616.70 218.13 620.09 212.62 625.98 211.98 C 631.86 211.33 641.32 208.52 646.93 212.07 C 652.54 215.62 657.54 214.55 663.23 218.77 C 668.92 222.99 657.82 227.25 653.75 228.75 C 649.67 230.24 641.53 234.76 637.25 228.75 C 632.98 222.73 635.70 217.21 640.00 213.00
C 618.79 210.43 608.15 230.13 607.00 248.00
C 606.87 250.04 606.16 252.62 606.00 254.00
C 606.09 270.91 609.77 286.89 609.00 304.00
C 631.10 310.26 659.20 308.23 672.00 332.00
C 668.94 323.63 667.42 315.67 664.93 307.07 C 662.44 298.48 660.22 290.96 658.00 282.00 C 655.78 273.04 659.19 264.00 666.25 259.25 C 673.30 254.50 672.35 244.95 680.92 241.92 C 689.50 238.90 697.18 235.78 706.00 240.00
C 705.08 236.41 703.24 233.01 701.00 230.00
C 699.74 228.55 697.40 226.22 696.00 225.00
C 678.42 219.07 670.26 202.57 650.00 202.00 C 629.74 201.43 610.53 213.67 590.00 209.00
C 589.73 210.23 590.58 211.00 591.00 212.00
M 686.00 224.00 
C 690.61 227.28 696.83 229.60 700.00 235.00
C 688.67 231.74 675.69 232.16 665.00 237.00
C 669.53 228.72 679.45 229.27 686.00 224.00 Z"/>
</g>
<g fill="#767575" fill-opacity="1.00" stroke="None">
<path d="
M 596.00 217.00 
C 595.02 216.14 591.61 213.09 591.00 212.00
C 591.89 214.09 594.22 215.68 596.00 217.00 Z"/>
</g>
<g fill="#131414" fill-opacity="1.00" stroke="None">
<path d="
M 649.00 217.00 
C 642.23 214.46 637.96 223.99 644.00 227.00 C 650.04 230.00 655.05 219.26 649.00 217.00 Z"/>
</g>
<g fill="#E8E8E8" fill-opacity="1.00" stroke="None">
<path d="
M 686.00 224.00 
C 679.45 229.27 669.53 228.72 665.00 237.00
C 675.69 232.16 688.67 231.74 700.00 235.00
C 696.83 229.60 690.61 227.28 686.00 224.00 Z"/>
</g>
<g fill="#7D7C7A" fill-opacity="1.00" stroke="None">
<path d="
M 701.00 230.00 
C 699.55 228.06 698.00 226.48 696.00 225.00
C 697.40 226.22 699.74 228.55 701.00 230.00 Z"/>
</g>
<g fill="#787878" fill-opacity="1.00" stroke="None">
<path d="
M 606.00 254.00 
C 606.16 252.62 606.87 250.04 607.00 248.00
C 606.76 249.55 606.06 251.78 606.00 254.00 Z"/>
</g>
<g fill="#242424" fill-opacity="1.00" stroke="None">
<path d="
M 606.00 320.00 
C 610.49 318.33 611.03 309.79 609.00 306.00
C 607.16 309.97 607.70 315.62 606.00 320.00 Z"/>
</g>
<g fill="#7D7E7D" fill-opacity="1.00" stroke="None">
<path d="
M 635.00 327.00 
C 633.51 326.80 631.17 326.06 629.00 326.00
C 630.40 326.16 632.92 326.90 635.00 327.00 Z"/>
</g>
<g fill="#F8F8F8" fill-opacity="1.00" stroke="None">
<path d="
M 461.00 517.00 
C 462.86 514.82 465.05 512.95 467.00 511.00
C 476.76 501.22 487.51 491.21 499.00 484.00
C 469.27 512.85 447.24 547.61 435.00 586.00
C 451.87 569.46 466.76 550.26 485.77 535.77 C 504.78 521.28 524.42 507.51 544.30 494.30 C 564.19 481.10 581.81 466.24 597.23 447.23 C 612.64 428.22 619.52 389.34 586.00 386.00
C 595.90 382.49 606.89 381.35 617.00 380.00
C 562.24 367.47 516.75 410.68 483.75 450.75 C 450.75 490.82 429.04 541.48 413.00 590.00
C 425.36 580.65 428.60 564.71 436.23 552.23 C 443.86 539.75 451.35 528.29 461.00 517.00 Z"/>
</g>
<g fill="#777577" fill-opacity="1.00" stroke="None">
<path d="
M 869.00 409.00 
C 868.94 406.90 868.17 404.47 868.00 403.00
C 868.06 405.10 868.83 407.53 869.00 409.00 Z"/>
</g>
<g fill="#7C7E7C" fill-opacity="1.00" stroke="None">
<path d="
M 855.00 419.00 
C 855.00 415.91 854.23 412.42 854.00 410.00
C 854.00 413.10 854.77 416.58 855.00 419.00 Z"/>
</g>
<g fill="#878587" fill-opacity="1.00" stroke="None">
<path d="
M 93.00 418.00 
C 93.16 416.30 93.95 413.41 94.00 411.00
C 93.84 412.70 93.05 415.59 93.00 418.00 Z"/>
</g>
<g fill="#767678" fill-opacity="1.00" stroke="None">
<path d="
M 693.00 420.00 
C 692.95 417.60 692.17 414.75 692.00 413.00
C 692.05 415.40 692.83 418.25 693.00 420.00 Z"/>
</g>
<g fill="#818184" fill-opacity="1.00" stroke="None">
<path d="
M 692.00 436.00 
C 692.17 434.82 692.93 432.84 693.00 431.00
C 692.83 432.18 692.07 434.16 692.00 436.00 Z"/>
</g>
<g fill="#828082" fill-opacity="1.00" stroke="None">
<path d="
M 94.00 449.00 
C 94.00 446.23 93.20 443.10 93.00 441.00
C 93.00 443.77 93.80 446.90 94.00 449.00 Z"/>
</g>
<g fill="#808182" fill-opacity="1.00" stroke="None">
<path d="
M 461.00 517.00 
C 462.95 515.05 465.14 513.18 467.00 511.00
C 465.05 512.95 462.86 514.82 461.00 517.00 Z"/>
</g>
<g fill="#7B7B7E" fill-opacity="1.00" stroke="None">
<path d="
M 639.00 547.00 
C 641.51 544.85 643.81 542.56 646.00 540.00
C 643.79 542.21 641.26 544.74 639.00 547.00 Z"/>
</g>
<g fill="#0E0E0E" fill-opacity="1.00" stroke="None">
<path d="
M 66.00 806.00 
C 73.79 796.89 82.94 787.74 92.00 780.00
C 95.68 776.86 99.27 773.18 103.00 770.00
C 105.00 768.00 106.87 765.82 109.00 764.00
C 112.96 760.62 117.04 757.39 121.00 754.00
C 122.67 752.33 124.22 750.52 126.00 749.00
C 163.60 716.87 205.59 690.51 245.30 662.30 C 285.02 634.10 334.35 617.20 367.00 579.00
C 368.86 576.82 371.05 574.95 373.00 573.00
C 380.06 564.37 388.23 556.47 394.00 547.00
C 264.96 630.25 116.57 706.74 32.00 844.00
C 42.71 831.24 54.94 818.94 66.00 806.00 Z"/>
</g>
<g fill="#878689" fill-opacity="1.00" stroke="None">
<path d="
M 367.00 579.00 
C 368.95 577.05 371.14 575.18 373.00 573.00
C 371.05 574.95 368.86 576.82 367.00 579.00 Z"/>
</g>
<g fill="#7B7B7B" fill-opacity="1.00" stroke="None">
<path d="
M 368.00 587.00 
C 369.95 585.05 372.14 583.18 374.00 581.00
C 372.05 582.95 369.86 584.82 368.00 587.00 Z"/>
</g>
<g fill="#F8F8F8" fill-opacity="1.00" stroke="None">
<path d="
M 550.00 615.00 
C 550.07 613.18 550.85 611.15 551.00 610.00
C 551.05 608.34 551.00 606.66 551.00 605.00
C 551.00 601.33 551.00 597.67 551.00 594.00
C 541.85 596.10 535.40 603.14 529.77 610.77 C 524.14 618.40 520.28 625.28 516.31 634.31 C 512.33 643.33 509.67 654.54 508.99 664.99 C 508.31 675.45 506.96 690.14 508.01 700.99 C 509.06 711.84 510.44 720.49 518.77 728.23 C 527.10 735.97 539.87 731.59 549.93 734.07 C 559.98 736.55 568.85 743.66 581.00 740.00
C 582.92 732.44 590.68 730.50 588.78 721.22 C 586.87 711.95 581.03 718.63 575.00 721.00
C 589.57 704.49 576.46 683.43 570.92 666.08 C 565.39 648.72 549.23 634.37 550.00 615.00 Z"/>
</g>
<g fill="#808182" fill-opacity="1.00" stroke="None">
<path d="
M 551.00 605.00 
C 551.21 603.00 553.91 595.82 551.00 594.00
C 551.00 597.67 551.00 601.33 551.00 605.00 Z"/>
</g>
<g fill="#828282" fill-opacity="1.00" stroke="None">
<path d="
M 487.00 598.00 
C 489.39 598.00 495.62 596.95 497.00 599.00
C 496.30 595.23 490.36 597.67 487.00 598.00 Z"/>
</g>
<g fill="#767677" fill-opacity="1.00" stroke="None">
<path d="
M 550.00 615.00 
C 550.17 613.80 550.95 611.87 551.00 610.00
C 550.85 611.15 550.07 613.18 550.00 615.00 Z"/>
</g>
<g fill="#747878" fill-opacity="1.00" stroke="None">
<path d="
M 491.00 627.00 
C 490.89 625.05 490.89 622.95 491.00 621.00
C 490.65 623.20 490.64 624.74 491.00 627.00 Z"/>
</g>
<g fill="#717473" fill-opacity="1.00" stroke="None">
<path d="
M 498.00 679.00 
C 497.94 676.90 497.17 674.47 497.00 673.00
C 497.06 675.10 497.83 677.53 498.00 679.00 Z"/>
</g>
<g fill="#79797A" fill-opacity="1.00" stroke="None">
<path d="
M 97.00 722.00 
C 98.78 720.48 100.33 718.67 102.00 717.00
C 100.22 718.52 98.67 720.33 97.00 722.00 Z"/>
</g>
<g fill="#747476" fill-opacity="1.00" stroke="None">
<path d="
M 749.00 725.00 
C 751.61 722.39 754.53 719.89 757.00 717.00
C 754.39 719.61 751.47 722.11 749.00 725.00 Z"/>
</g>
<g fill="#757675" fill-opacity="1.00" stroke="None">
<path d="
M 68.00 750.00 
C 75.54 742.46 83.42 734.58 91.00 727.00
C 82.97 733.86 74.90 741.92 68.00 750.00 Z"/>
</g>
<g fill="#DCDCDD" fill-opacity="1.00" stroke="None">
<path d="
M 589.00 737.00 
C 589.46 736.87 590.00 737.00 590.00 737.00
C 590.50 737.00 591.00 737.00 591.00 737.00
C 593.28 737.00 595.74 737.28 598.00 737.00
C 598.53 737.61 597.35 734.49 597.00 734.00
C 596.97 732.86 595.47 732.28 596.00 731.00
C 593.50 731.60 590.09 734.40 589.00 737.00 Z"/>
</g>
<g fill="#D6D6D6" fill-opacity="1.00" stroke="None">
<path d="
M 505.00 738.00 
C 504.44 735.84 503.61 732.08 501.00 732.00
C 500.09 735.35 496.73 737.08 495.00 740.00
C 498.32 739.14 501.23 737.16 505.00 738.00 Z"/>
</g>
<g fill="#70716F" fill-opacity="1.00" stroke="None">
<path d="
M 598.00 737.00 
C 600.84 736.65 599.40 736.51 597.00 734.00
C 597.35 734.49 598.53 737.61 598.00 737.00 Z"/>
</g>
<g fill="#939493" fill-opacity="1.00" stroke="None">
<path d="
M 588.00 740.00 
C 588.80 739.57 589.37 737.57 590.00 737.00
C 590.00 737.00 589.46 736.87 589.00 737.00
C 587.64 737.66 586.34 738.27 585.00 739.00
C 585.26 740.53 587.02 739.81 588.00 740.00 Z"/>
</g>
<g fill="#4C4C4A" fill-opacity="1.00" stroke="None">
<path d="
M 588.00 740.00 
C 593.18 739.39 599.58 741.25 604.00 739.00
C 601.44 738.54 588.89 740.49 591.00 737.00
C 591.00 737.00 590.50 737.00 590.00 737.00
C 589.37 737.57 588.80 739.57 588.00 740.00 Z"/>
</g>
<g fill="#6F706F" fill-opacity="1.00" stroke="None">
<path d="
M 627.00 739.00 
C 627.44 738.90 628.64 737.13 629.00 737.00
C 627.67 737.00 626.33 737.00 625.00 737.00
C 624.89 738.34 625.55 739.32 627.00 739.00 Z"/>
</g>
<g fill="#CBCBCB" fill-opacity="1.00" stroke="None">
<path d="
M 627.00 739.00 
C 635.64 738.22 644.97 742.03 653.00 739.00
C 645.85 738.72 636.49 734.38 629.00 737.00
C 628.64 737.13 627.44 738.90 627.00 739.00 Z"/>
</g>
<g fill="#BBBBB8" fill-opacity="1.00" stroke="None">
<path d="
M 553.00 739.00 
C 549.82 739.53 545.43 737.87 543.00 740.00
C 546.18 739.47 550.57 741.13 553.00 739.00 Z"/>
</g>
<g fill="#8E8E8E" fill-opacity="1.00" stroke="None">
<path d="
M 263.00 751.00 
C 263.00 751.04 264.00 751.00 264.00 751.00
C 264.33 747.36 263.75 743.64 264.00 740.00
C 261.99 741.41 262.78 748.51 263.00 751.00 Z"/>
</g>
<g fill="#7B797C" fill-opacity="1.00" stroke="None">
<path d="
M 121.00 754.00 
C 122.78 752.48 124.33 750.67 126.00 749.00
C 124.22 750.52 122.67 752.33 121.00 754.00 Z"/>
</g>
<g fill="#636364" fill-opacity="1.00" stroke="None">
<path d="
M 721.00 752.00 
C 710.53 754.32 698.75 750.95 688.00 752.00 C 677.25 753.05 665.85 751.52 655.00 752.00 C 644.15 752.48 632.86 751.78 622.00 752.00 C 611.14 752.22 600.87 751.91 590.00 752.00 C 579.13 752.09 567.91 751.96 557.00 752.00 C 546.09 752.04 534.88 751.99 524.00 752.00 C 513.12 752.01 502.88 752.01 492.00 752.00 C 481.12 751.99 469.91 752.03 459.00 752.00 C 448.09 751.97 436.88 752.07 426.00 752.00 C 415.12 751.93 403.78 752.16 393.00 752.00 C 382.22 751.84 371.61 752.36 361.00 752.00 C 350.39 751.64 338.32 752.78 328.00 752.00 C 317.68 751.22 304.58 753.71 295.00 752.00 C 285.42 750.29 271.27 756.40 264.00 751.00
C 264.00 751.00 263.00 751.04 263.00 751.00
C 264.03 755.81 277.90 752.14 283.00 753.00 C 288.10 753.86 298.68 752.61 305.00 753.00 C 311.32 753.39 320.12 752.82 327.00 753.00 C 333.88 753.18 341.87 752.92 349.00 753.00 C 356.13 753.08 363.76 752.96 371.00 753.00 C 378.24 753.04 385.71 752.98 393.00 753.00 C 400.29 753.02 407.69 752.99 415.00 753.00 C 422.31 753.01 429.67 753.00 437.00 753.00 C 444.33 753.00 451.67 753.00 459.00 753.00 C 466.33 753.00 473.67 753.00 481.00 753.00 C 488.33 753.00 495.67 753.00 503.00 753.00 C 510.33 753.00 517.67 753.00 525.00 753.00 C 532.33 753.00 539.67 753.00 547.00 753.00 C 554.33 753.00 561.67 753.00 569.00 753.00 C 576.33 753.00 583.67 753.01 591.00 753.00 C 598.33 752.99 605.68 753.01 613.00 753.00 C 620.32 752.99 627.70 753.03 635.00 753.00 C 642.30 752.97 649.74 753.07 657.00 753.00 C 664.27 752.93 671.82 753.15 679.00 753.00 C 686.18 752.85 694.00 753.33 701.00 753.00 C 708.00 752.67 714.95 754.23 721.00 752.00 Z"/>
</g>
<g fill="#79797A" fill-opacity="1.00" stroke="None">
<path d="
M 159.00 766.00 
C 162.87 762.13 167.08 757.92 171.00 754.00
C 166.76 757.62 162.66 761.71 159.00 766.00 Z"/>
</g>
<g fill="#828083" fill-opacity="1.00" stroke="None">
<path d="
M 103.00 770.00 
C 105.13 768.18 107.00 766.00 109.00 764.00
C 106.87 765.82 105.00 768.00 103.00 770.00 Z"/>
</g>
<g fill="#7E7D7E" fill-opacity="1.00" stroke="None">
<path d="
M 66.00 806.00 
C 74.54 797.46 83.41 788.58 92.00 780.00
C 82.94 787.74 73.79 796.89 66.00 806.00 Z"/>
</g>
<g fill="#79787A" fill-opacity="1.00" stroke="None">
<path d="
M 32.00 793.00 
C 30.72 796.75 33.67 792.56 35.00 791.00
C 34.23 791.70 32.76 792.20 32.00 793.00 Z"/>
</g>
<g fill="#787879" fill-opacity="1.00" stroke="None">
<path d="
M 132.00 794.00 
C 130.79 797.73 133.64 793.60 135.00 792.00
C 134.23 792.70 132.76 793.20 132.00 794.00 Z"/>
</g>
<g fill="#8F8F8E" fill-opacity="1.00" stroke="None">
<path d="
M 322.00 793.00 
C 325.00 793.00 328.00 793.00 331.00 793.00
C 328.24 792.73 324.82 792.73 322.00 793.00 Z"/>
</g>
<g fill="#8E8F8E" fill-opacity="1.00" stroke="None">
<path d="
M 523.00 793.00 
C 526.33 793.00 529.67 793.00 533.00 793.00
C 529.92 792.70 526.14 792.70 523.00 793.00 Z"/>
</g>
<g fill="#0F0F0F" fill-opacity="1.00" stroke="None">
<path d="
M 331.00 793.00 
C 328.00 793.00 325.00 793.00 322.00 793.00
C 307.23 792.82 289.39 795.84 279.31 807.31 C 269.22 818.77 275.80 841.07 289.78 845.22 C 303.76 849.38 322.53 855.56 337.00 855.00 C 351.47 854.44 373.37 866.41 362.75 881.75 C 352.13 897.09 332.75 891.28 317.67 892.33 C 302.59 893.38 286.95 884.78 274.00 879.00
C 273.33 882.88 268.33 884.91 268.00 889.00
C 282.47 896.64 297.26 900.83 313.78 902.22 C 330.29 903.62 349.14 903.01 363.77 895.77 C 378.40 888.53 383.61 869.93 373.75 857.25 C 363.90 844.57 343.84 846.07 330.67 842.33 C 317.50 838.59 293.56 842.69 287.98 826.02 C 282.39 809.36 306.96 802.35 321.00 803.00 C 335.04 803.65 356.78 805.51 370.00 812.00
C 370.67 809.28 372.49 806.52 375.00 805.00
C 362.62 796.73 346.38 793.00 331.00 793.00 Z"/>
</g>
<g fill="#101010" fill-opacity="1.00" stroke="None">
<path d="
M 533.00 793.00 
C 529.67 793.00 526.33 793.00 523.00 793.00
C 480.27 788.58 439.54 840.06 467.70 876.30 C 495.86 912.54 548.40 908.54 583.00 887.00
C 582.06 883.04 577.48 880.88 576.00 877.00
C 546.79 904.21 473.26 897.88 472.00 849.00 C 470.74 800.12 545.42 790.06 574.00 819.00
C 576.33 815.43 579.30 812.39 582.00 809.00
C 567.72 798.57 550.93 793.00 533.00 793.00 Z"/>
</g>
<g fill="#0B0A0B" fill-opacity="1.00" stroke="None">
<path d="
M 675.00 805.00 
C 675.00 836.67 675.00 868.34 675.00 900.00
C 679.00 900.00 683.00 900.00 687.00 900.00
C 687.00 865.00 687.00 830.00 687.00 795.00
C 683.00 795.00 679.00 795.00 675.00 795.00
C 675.00 798.33 675.00 801.67 675.00 805.00 Z"/>
</g>
<g fill="#7F8180" fill-opacity="1.00" stroke="None">
<path d="
M 687.00 900.00 
C 683.00 900.00 679.00 900.00 675.00 900.00
C 675.00 868.34 675.00 836.67 675.00 805.00
C 674.37 811.55 673.80 819.69 674.00 827.00 C 674.20 834.31 674.34 841.71 674.00 849.00 C 673.66 856.29 675.10 863.76 674.00 871.00 C 672.90 878.24 676.61 885.88 674.00 893.00 C 671.39 900.12 683.16 905.48 687.00 900.00 Z"/>
</g>
<g fill="#000000" fill-opacity="1.00" stroke="None">
<path d="
M 419.00 843.00 
C 409.56 840.61 405.10 854.37 414.33 857.67 C 423.56 860.97 427.81 845.23 419.00 843.00 Z"/>
</g>
<g fill="#000000" fill-opacity="1.00" stroke="None">
<path d="
M 623.00 843.00 
C 613.56 840.61 609.10 854.37 618.33 857.67 C 627.56 860.97 631.81 845.23 623.00 843.00 Z"/>
</g>
<g fill="#161616" fill-opacity="1.00" stroke="None">
<path d="
M 688.00 936.00 
C 676.81 936.00 665.14 936.00 654.00 936.00 C 642.86 936.00 632.07 936.00 621.00 936.00 C 609.93 936.00 599.04 936.00 588.00 936.00 C 576.96 936.00 566.03 936.00 555.00 936.00 C 543.97 936.00 533.05 936.00 522.00 936.00 C 510.95 936.00 500.09 935.99 489.00 936.00 C 477.91 936.01 466.08 935.98 455.00 936.00 C 443.92 936.02 433.00 935.96 422.00 936.00 C 411.00 936.04 399.92 935.91 389.00 936.00 C 378.08 936.09 366.78 935.80 356.00 936.00 C 345.22 936.20 333.51 935.55 323.00 936.00 C 312.49 936.45 299.90 935.00 290.00 936.00 C 280.10 937.00 263.42 930.88 264.00 943.00
C 275.19 943.00 286.86 943.00 298.00 943.00 C 309.14 943.00 319.93 943.00 331.00 943.00 C 342.07 943.00 352.96 943.00 364.00 943.00 C 375.04 943.00 385.97 943.00 397.00 943.00 C 408.03 943.00 418.95 943.00 430.00 943.00 C 441.05 943.00 451.91 943.01 463.00 943.00 C 474.09 942.99 485.92 943.02 497.00 943.00 C 508.08 942.98 519.00 943.04 530.00 943.00 C 541.00 942.96 552.08 943.09 563.00 943.00 C 573.92 942.91 585.22 943.20 596.00 943.00 C 606.78 942.80 618.50 943.45 629.00 943.00 C 639.51 942.55 652.10 944.00 662.00 943.00 C 671.90 942.00 688.58 948.12 688.00 936.00 Z"/>
</g>
</svg>